<svg xmlns="http://www.w3.org/2000/svg" width="40" height="40" fill="none" viewBox="0 0 40 40"><g filter="url(#filter0_i)"><path stroke="#D2D2D2" stroke-linecap="round" stroke-linejoin="round" stroke-width="2" d="M19.9999 36.6667C29.2047 36.6667 36.6666 29.2048 36.6666 20C36.6666 10.7953 29.2047 3.33337 19.9999 3.33337C10.7952 3.33337 3.33325 10.7953 3.33325 20C3.33325 29.2048 10.7952 36.6667 19.9999 36.6667Z"/><path stroke="#D2D2D2" stroke-linecap="round" stroke-linejoin="round" stroke-width="2" d="M15.1499 15C15.5417 13.8861 16.3152 12.9468 17.3332 12.3485C18.3512 11.7502 19.5481 11.5315 20.7119 11.7312C21.8757 11.9308 22.9313 12.5358 23.6917 13.4392C24.4521 14.3425 24.8683 15.4858 24.8666 16.6666C24.8666 20 19.8666 21.6666 19.8666 21.6666"/><path stroke="#D2D2D2" stroke-linecap="round" stroke-linejoin="round" stroke-width="2" d="M20 28.3334H20.0167"/></g><defs><filter id="filter0_i" width="40" height="44" x="0" y="0" color-interpolation-filters="sRGB" filterUnits="userSpaceOnUse"><feFlood flood-opacity="0" result="BackgroundImageFix"/><feBlend in="SourceGraphic" in2="BackgroundImageFix" mode="normal" result="shape"/><feColorMatrix in="SourceAlpha" result="hardAlpha" type="matrix" values="0 0 0 0 0 0 0 0 0 0 0 0 0 0 0 0 0 0 127 0"/><feOffset dy="4"/><feGaussianBlur stdDeviation="5.5"/><feComposite in2="hardAlpha" k2="-1" k3="1" operator="arithmetic"/><feColorMatrix type="matrix" values="0 0 0 0 0.14902 0 0 0 0 0.360784 0 0 0 0 0.737255 0 0 0 0.25 0"/><feBlend in2="shape" mode="normal" result="effect1_innerShadow"/></filter></defs></svg>