<svg width="32" height="32" viewBox="0 0 32 32" fill="none" xmlns="http://www.w3.org/2000/svg">
<g clip-path="url(#clip0)">
<path d="M27.328 12.0361C24.416 10.7971 20.505 9.99511 16.328 9.77611C15.6847 9.73739 15.0404 9.71838 14.396 9.71911C17.484 5.94811 20.797 3.41611 22.979 3.33411C23.407 3.31811 23.771 3.40711 24.063 3.59411C25.006 4.20911 25.266 5.95411 24.787 8.38111C24.735 8.71411 24.948 9.04211 25.266 9.10511C25.345 9.12145 25.4265 9.122 25.5057 9.10675C25.5849 9.09149 25.6603 9.06071 25.7276 9.0162C25.7949 8.97168 25.8527 8.9143 25.8977 8.84735C25.9428 8.7804 25.9741 8.70521 25.99 8.62611C26.589 5.58511 26.146 3.49511 24.735 2.57411C24.23 2.24111 23.615 2.08311 22.932 2.11011C20.203 2.21411 16.349 5.17811 12.812 9.74111C11.3698 9.77835 9.93139 9.90526 8.50499 10.1211C7.64499 6.25611 7.98399 3.48511 9.29699 2.81811C9.47799 2.71911 9.67699 2.67311 9.90599 2.65111C10.838 2.57911 12.119 3.17811 13.521 4.34411C13.781 4.55711 14.166 4.53111 14.38 4.26511C14.4318 4.20387 14.471 4.13294 14.4952 4.05645C14.5194 3.97996 14.5282 3.89943 14.521 3.81952C14.5138 3.73961 14.4909 3.66192 14.4534 3.59095C14.416 3.51998 14.3649 3.45716 14.303 3.40611C12.62 2.01511 11.074 1.33311 9.80699 1.42611C9.43449 1.45528 9.07082 1.55434 8.73499 1.71811C7.14599 2.53011 6.51099 4.82211 6.90699 8.17111C6.99999 8.86311 7.11999 9.58711 7.29799 10.3271C2.92199 11.2021 0.136986 12.9581 0.0169864 15.1601C-0.0670136 16.7231 1.16799 18.2071 3.58899 19.4571C3.66038 19.4944 3.73846 19.5171 3.8187 19.5239C3.89893 19.5307 3.97973 19.5215 4.05639 19.4969C4.13305 19.4722 4.20405 19.4326 4.26526 19.3803C4.32648 19.3279 4.37669 19.264 4.41299 19.1921C4.4503 19.1206 4.473 19.0424 4.47976 18.9621C4.48651 18.8817 4.47719 18.8008 4.45233 18.7241C4.42748 18.6474 4.38759 18.5764 4.33499 18.5153C4.28239 18.4542 4.21814 18.4041 4.14599 18.3681C2.21399 17.3731 1.17299 16.2531 1.23499 15.2281C1.30299 13.7851 3.59899 12.3051 7.58399 11.5201C7.96811 12.9198 8.43562 14.2952 8.98399 15.6391C7.62499 18.1551 6.63999 20.6351 6.13599 22.8381C5.38499 26.1251 5.78699 28.4691 7.28099 29.4371C7.75999 29.7491 8.31699 29.9061 8.94199 29.9061C10.187 29.9061 11.697 29.2911 13.406 28.0731C13.4713 28.0265 13.5268 27.9675 13.5693 27.8994C13.6119 27.8313 13.6406 27.7555 13.6538 27.6764C13.667 27.5972 13.6645 27.5162 13.6465 27.438C13.6284 27.3598 13.5951 27.2859 13.5485 27.2206C13.5019 27.1553 13.4428 27.0998 13.3748 27.0572C13.3067 27.0147 13.2309 26.986 13.1517 26.9728C13.0726 26.9596 12.9916 26.9621 12.9134 26.9801C12.8352 26.9982 12.7613 27.0315 12.696 27.0781C10.639 28.5511 8.90499 29.0411 7.94699 28.4151C6.93599 27.7541 6.71199 25.8271 7.33799 23.1141C7.75899 21.2651 8.54599 19.2071 9.61399 17.0871C9.87899 17.6711 10.161 18.2541 10.453 18.8381C12.354 22.5671 14.682 25.8061 17 27.9691C18.849 29.6881 20.568 30.5841 21.979 30.5841C22.448 30.5841 22.886 30.4841 23.282 30.2871C24.807 29.5061 25.47 27.3391 25.146 24.1881C24.85 21.2351 23.735 17.6401 22.006 14.0521C21.9354 13.9073 21.8106 13.7961 21.6587 13.7424C21.5068 13.6887 21.3399 13.6968 21.194 13.7651C21.121 13.7996 21.0555 13.8482 21.0013 13.9081C20.947 13.968 20.9052 14.0379 20.878 14.114C20.8509 14.1901 20.8391 14.2708 20.8432 14.3514C20.8473 14.4321 20.8673 14.5112 20.902 14.5841C24.485 22.0521 24.741 28.1671 22.73 29.1931C20.605 30.2811 15.495 26.0521 11.542 18.2861C11.1073 17.4446 10.7059 16.5863 10.339 15.7131C10.792 14.9061 11.271 14.0881 11.803 13.2761C12.3205 12.4826 12.8638 11.7062 13.432 10.9481H13.959C14.678 10.9481 15.459 10.9641 16.271 11.0111C24.974 11.4701 30.902 14.4271 30.782 16.7921C30.73 17.8121 29.547 18.8441 27.547 19.6201C27.402 19.6832 27.287 19.7999 27.2261 19.9458C27.1652 20.0918 27.1632 20.2556 27.2205 20.403C27.2778 20.5504 27.3899 20.6699 27.5334 20.7365C27.6768 20.8031 27.8404 20.8115 27.99 20.7601C30.531 19.7761 31.927 18.4211 32.006 16.8551C32.099 15.0831 30.449 13.3751 27.339 12.0521V12.0411L27.328 12.0361ZM10.771 12.5991C10.4185 13.1442 10.0798 13.6981 9.75499 14.2601C9.3855 13.2923 9.06411 12.3067 8.79199 11.3071C9.81194 11.1506 10.8388 11.0428 11.869 10.9841C11.4889 11.5116 11.1245 12.0502 10.776 12.5991V12.5841L10.771 12.5991ZM16.005 14.1671C13.562 14.1671 13.562 17.8341 16.005 17.8341C18.453 17.8341 18.453 14.1671 16.005 14.1671Z" fill="#265CBC"/>
</g>
<defs>
<clipPath id="clip0">
<rect width="32" height="32" fill="white"/>
</clipPath>
</defs>
</svg>
