<svg width="120" height="120" viewBox="0 0 120 120" fill="none" xmlns="http://www.w3.org/2000/svg">
<g clip-path="url(#clip0)">
<path d="M60.9128 48.0469C54.321 48.0469 48.9597 53.4091 48.9597 60C48.9597 66.5909 54.322 71.9531 60.9128 71.9531C67.5037 71.9531 72.866 66.5909 72.866 60C72.866 53.4091 67.5037 48.0469 60.9128 48.0469Z" fill="#2DB3FF" fill-opacity="0.61"/>
<path d="M20.3906 74.6968C20.3906 70.5613 17.0261 67.1968 12.8906 67.1968C8.75519 67.1968 5.39062 70.5613 5.39062 74.6968C5.39062 78.8322 8.75519 82.1968 12.8906 82.1968C17.0261 82.1968 20.3906 78.8322 20.3906 74.6968Z" fill="#2DB3FF" fill-opacity="0.61"/>
<path d="M102.89 60C104.085 58.6826 105.207 57.3615 106.245 56.0413C114.304 45.8011 116.658 36.5524 112.875 30C109.093 23.4476 99.9063 20.8621 87.0083 22.7206C79.0075 23.8733 70.0445 26.6428 60.9185 30.7178C56.1084 28.569 51.344 26.7856 46.7416 25.4095C47.1994 24.0134 47.6864 22.6657 48.2037 21.373C51.0235 14.3243 54.5565 9.50592 58.0575 7.75909C58.757 4.74792 60.3949 2.0929 62.6461 0.119934C62.0721 0.0411987 61.4935 0 60.9121 0C53.3462 0 46.5146 6.66321 41.6751 18.7619C41.0516 20.322 40.4684 21.9543 39.9246 23.6481C38.186 23.2718 36.4804 22.9605 34.8178 22.7206C21.9217 20.863 12.7353 23.4476 8.9523 30C5.16934 36.5524 7.52316 45.8011 15.5807 56.0413C20.5804 62.395 27.4569 68.7744 35.5502 74.6411C36.0959 79.8798 36.9326 84.8959 38.0423 89.5679C36.604 89.87 35.1931 90.1218 33.8153 90.3204C26.3107 91.4017 20.3772 90.7535 17.1115 88.6011C15.7757 89.0076 14.3585 89.2291 12.8909 89.2291C11.2466 89.2291 9.66732 88.9499 8.19241 88.4445C8.41122 88.9792 8.66299 89.4983 8.9523 90C11.9351 95.1672 18.276 97.8671 27.1493 97.8671C29.5288 97.8671 32.0913 97.6721 34.8187 97.2794C36.4813 97.0395 38.1869 96.7282 39.9255 96.3519C40.4684 98.0457 41.0516 99.679 41.676 101.238C46.5146 113.337 53.3471 120 60.9121 120C68.4781 120 75.3106 113.337 80.1501 101.238C83.1521 93.7308 85.2404 84.5856 86.275 74.6429C90.5386 71.5521 94.4644 68.3194 97.9553 65.0226C98.9367 66.1176 99.8596 67.2134 100.72 68.3066C105.424 74.285 107.829 79.7644 107.58 83.6719C109.754 85.7135 111.3 88.4125 111.898 91.4502C112.255 90.9897 112.583 90.5072 112.875 90C116.659 83.4476 114.304 74.1998 106.246 63.9587C105.207 62.6385 104.085 61.3174 102.89 60ZM88.0117 29.6805C97.5845 28.3008 104.603 29.7345 106.786 33.5156C108.969 37.2968 106.701 44.0918 100.72 51.6934C99.8596 52.7866 98.9367 53.8834 97.9553 54.9774C91.3104 48.7033 83.0954 42.6581 73.9676 37.3892C72.424 36.4984 70.874 35.6424 69.3222 34.8193C75.892 32.2723 82.2393 30.5118 88.0117 29.6805ZM21.1068 51.6934C15.1257 44.0927 12.8589 37.2968 15.0424 33.5156C17.225 29.7345 24.2425 28.3008 33.8162 29.6805C35.1941 29.8782 36.6049 30.13 38.0432 30.4321C35.9311 39.3237 34.8031 49.4604 34.8031 60C34.8031 61.7816 34.837 63.5513 34.9011 65.3064C29.4107 60.8917 24.7122 56.2756 21.1068 51.6934ZM41.8344 60C41.8344 50.0317 42.8845 40.4929 44.8492 32.178C53.0331 34.6335 61.8194 38.4943 70.4519 43.4784C79.0854 48.4616 86.8216 54.1397 93.0407 60C86.8216 65.8594 79.0854 71.5384 70.4519 76.5216C61.8194 81.5057 53.0331 85.3665 44.8492 87.822C42.8836 79.5071 41.8344 69.9683 41.8344 60ZM73.6215 98.627C70.029 107.607 65.2783 112.969 60.9121 112.969C56.5469 112.969 51.7953 107.607 48.2037 98.627C47.6864 97.3343 47.1994 95.9866 46.7416 94.5905C55.4977 91.973 64.8397 87.8806 73.9666 82.6108C75.5111 81.72 77.0273 80.8054 78.5159 79.8724C77.4374 86.835 75.7876 93.2117 73.6215 98.627Z" fill="#2DB3FF" fill-opacity="0.61"/>
<path d="M97.641 86.7573C93.5046 86.7573 90.141 90.1219 90.141 94.2573C90.141 98.3928 93.5046 101.757 97.641 101.757C101.776 101.757 105.141 98.3928 105.141 94.2573C105.141 90.1219 101.776 86.7573 97.641 86.7573Z" fill="#2DB3FF" fill-opacity="0.61"/>
<path d="M72.2095 18.5469C76.3449 18.5469 79.7095 15.1823 79.7095 11.0469C79.7095 6.91144 76.3449 3.54688 72.2095 3.54688C68.074 3.54688 64.7095 6.91144 64.7095 11.0469C64.7095 15.1823 68.074 18.5469 72.2095 18.5469Z" fill="#2DB3FF" fill-opacity="0.61"/>
</g>
<defs>
<clipPath id="clip0">
<rect width="120" height="120" fill="white"/>
</clipPath>
</defs>
</svg>
