<svg xmlns="http://www.w3.org/2000/svg" width="120" height="120" fill="none" viewBox="0 0 120 120"><g clip-path="url(#clip0)"><path fill="#D4D4D4" d="M67.5128 115.171H52.4863C51.9686 115.171 51.5488 114.751 51.5488 114.233V95.625H68.4503V114.233C68.4503 114.751 68.0306 115.171 67.5128 115.171Z"/><path fill="#BDBDBD" d="M61.207 95.625V115.171H67.5129C68.0306 115.171 68.4504 114.751 68.4504 114.233V95.625H61.207Z"/><path fill="#8C9EFF" d="M37.8166 64.9502C37.8166 64.9502 12.6562 67.3092 12.6562 91.818C12.6562 112.46 24.9473 118.549 28.8258 119.956C29.3377 120.142 29.8589 119.714 29.7773 119.176C29.0803 114.572 27.8552 97.6272 47.5725 97.6272L37.8166 64.9502Z"/><path fill="#8C9EFF" d="M82.183 64.9502C82.183 64.9502 107.343 67.3092 107.343 91.818C107.343 112.46 95.0523 118.549 91.1738 119.956C90.662 120.142 90.1407 119.714 90.2223 119.176C90.9193 114.572 92.1444 97.6272 72.4271 97.6272L82.183 64.9502Z"/><path fill="#7488ED" d="M82.1831 64.9502L81.7042 66.5538C89.1566 69.127 100.097 75.6558 100.097 91.8183C100.097 104.944 95.1274 112.184 90.5111 116.079C90.4621 117.353 90.3353 118.428 90.2221 119.176C90.1408 119.714 90.662 120.142 91.1737 119.956C95.0519 118.549 107.343 112.46 107.343 91.8183C107.343 67.3092 82.1831 64.9502 82.1831 64.9502Z"/><path fill="#229ADD" d="M87.4044 46.8681C87.4044 63.838 74.6757 97.5943 72.7914 102.499C72.6521 102.861 72.3048 103.099 71.9169 103.099H48.0831C47.695 103.099 47.3476 102.861 47.2086 102.499C45.3242 97.5943 32.5956 63.838 32.5956 46.8681C32.5956 16.7078 56.7564 1.7877 59.705 0.0791016C59.8871 -0.0263672 60.1103 -0.0263672 60.2924 0.0791016C63.2413 1.78746 87.4044 16.7075 87.4044 46.8681Z"/><path fill="#1D84BE" d="M60.2932 0.0792773C60.1107 -0.0264258 59.8868 -0.0264258 59.7043 0.0792773C59.18 0.383027 57.9849 1.10584 56.3771 2.25404C63.8229 7.57201 80.1607 22.0655 80.1607 46.8678C80.1607 65.1943 65.3157 103.098 65.3157 103.098H71.9166C72.3047 103.098 72.6521 102.861 72.7911 102.499C74.6754 97.594 87.4041 63.8377 87.4041 46.8678C87.4046 16.7101 63.2459 1.78998 60.2932 0.0792773Z"/><path fill="#BDF9FF" d="M60.0001 67.2437C70.268 67.2437 78.5917 58.9199 78.5917 48.6521C78.5917 38.3843 70.268 30.0605 60.0001 30.0605C49.7323 30.0605 41.4086 38.3843 41.4086 48.6521C41.4086 58.9199 49.7323 67.2437 60.0001 67.2437Z"/><path fill="#8C9EFF" d="M60.0001 28.3027C48.7794 28.3027 39.6508 37.4314 39.6508 48.6519C39.6508 59.8726 48.7794 69.0012 60.0001 69.0012C71.2208 69.0012 80.3495 59.8726 80.3495 48.6519C80.3495 37.4316 71.2208 28.3027 60.0001 28.3027ZM60.0001 65.4859C50.7179 65.4859 43.1664 57.9343 43.1664 48.6521C43.1664 39.3699 50.7179 31.8186 60.0001 31.8186C69.2823 31.8186 76.8339 39.3702 76.8339 48.6521C76.8339 57.9343 69.2823 65.4859 60.0001 65.4859Z"/><g filter="url(#filter0_f)"><path fill="#00D1FF" fill-opacity=".73" d="M59.695 55H58.255C58.145 55 58.0575 54.9725 57.9925 54.9175C57.9325 54.8575 57.8825 54.7925 57.8425 54.7225L54.9625 50.2075C54.9225 50.3275 54.8775 50.43 54.8275 50.515L52.0225 54.7225C51.9725 54.7925 51.9175 54.8575 51.8575 54.9175C51.8025 54.9725 51.725 55 51.625 55H50.275L53.9725 49.48L50.425 44.2525H51.8725C51.9775 44.2525 52.055 44.27 52.105 44.305C52.155 44.34 52.2 44.39 52.24 44.455L55.045 48.76C55.08 48.655 55.1325 48.54 55.2025 48.415L57.85 44.485C57.89 44.415 57.9375 44.36 57.9925 44.32C58.0475 44.275 58.1125 44.2525 58.1875 44.2525H59.575L56.0125 49.4125L59.695 55ZM64.4112 49.825C64.8262 49.825 65.1912 49.77 65.5062 49.66C65.8262 49.55 66.0937 49.3975 66.3087 49.2025C66.5287 49.0025 66.6937 48.765 66.8037 48.49C66.9137 48.215 66.9687 47.9125 66.9687 47.5825C66.9687 46.8975 66.7562 46.3625 66.3312 45.9775C65.9112 45.5925 65.2712 45.4 64.4112 45.4H62.6862V49.825H64.4112ZM64.4112 44.2525C65.0912 44.2525 65.6812 44.3325 66.1812 44.4925C66.6862 44.6475 67.1037 44.87 67.4337 45.16C67.7637 45.45 68.0087 45.8 68.1687 46.21C68.3337 46.62 68.4162 47.0775 68.4162 47.5825C68.4162 48.0825 68.3287 48.54 68.1537 48.955C67.9787 49.37 67.7212 49.7275 67.3812 50.0275C67.0462 50.3275 66.6287 50.5625 66.1287 50.7325C65.6337 50.8975 65.0612 50.98 64.4112 50.98H62.6862V55H61.2387V44.2525H64.4112Z"/></g><path fill="#265CBC" d="M59.695 54H58.255C58.145 54 58.0575 53.9725 57.9925 53.9175C57.9325 53.8575 57.8825 53.7925 57.8425 53.7225L54.9625 49.2075C54.9225 49.3275 54.8775 49.43 54.8275 49.515L52.0225 53.7225C51.9725 53.7925 51.9175 53.8575 51.8575 53.9175C51.8025 53.9725 51.725 54 51.625 54H50.275L53.9725 48.48L50.425 43.2525H51.8725C51.9775 43.2525 52.055 43.27 52.105 43.305C52.155 43.34 52.2 43.39 52.24 43.455L55.045 47.76C55.08 47.655 55.1325 47.54 55.2025 47.415L57.85 43.485C57.89 43.415 57.9375 43.36 57.9925 43.32C58.0475 43.275 58.1125 43.2525 58.1875 43.2525H59.575L56.0125 48.4125L59.695 54ZM64.4112 48.825C64.8262 48.825 65.1912 48.77 65.5062 48.66C65.8262 48.55 66.0937 48.3975 66.3087 48.2025C66.5287 48.0025 66.6937 47.765 66.8037 47.49C66.9137 47.215 66.9687 46.9125 66.9687 46.5825C66.9687 45.8975 66.7562 45.3625 66.3312 44.9775C65.9112 44.5925 65.2712 44.4 64.4112 44.4H62.6862V48.825H64.4112ZM64.4112 43.2525C65.0912 43.2525 65.6812 43.3325 66.1812 43.4925C66.6862 43.6475 67.1037 43.87 67.4337 44.16C67.7637 44.45 68.0087 44.8 68.1687 45.21C68.3337 45.62 68.4162 46.0775 68.4162 46.5825C68.4162 47.0825 68.3287 47.54 68.1537 47.955C67.9787 48.37 67.7212 48.7275 67.3812 49.0275C67.0462 49.3275 66.6287 49.5625 66.1287 49.7325C65.6337 49.8975 65.0612 49.98 64.4112 49.98H62.6862V54H61.2387V43.2525H64.4112Z"/></g><defs><filter id="filter0_f" width="30.141" height="22.747" x="44.275" y="38.253" color-interpolation-filters="sRGB" filterUnits="userSpaceOnUse"><feFlood flood-opacity="0" result="BackgroundImageFix"/><feBlend in="SourceGraphic" in2="BackgroundImageFix" mode="normal" result="shape"/><feGaussianBlur result="effect1_foregroundBlur" stdDeviation="3"/></filter><clipPath id="clip0"><rect width="120" height="120" fill="#fff"/></clipPath></defs></svg>