<svg width="120" height="120" viewBox="0 0 120 120" fill="none" xmlns="http://www.w3.org/2000/svg">
<g clip-path="url(#clip0)">
<path d="M67.5128 115.171H52.4863C51.9686 115.171 51.5488 114.751 51.5488 114.233V95.625H68.4503V114.233C68.4503 114.751 68.0306 115.171 67.5128 115.171Z" fill="#D4D4D4"/>
<path d="M61.207 95.625V115.171H67.5129C68.0306 115.171 68.4504 114.751 68.4504 114.233V95.625H61.207Z" fill="#BDBDBD"/>
<path d="M37.8166 64.9502C37.8166 64.9502 12.6562 67.3092 12.6562 91.818C12.6562 112.46 24.9473 118.549 28.8258 119.956C29.3377 120.142 29.8589 119.714 29.7773 119.176C29.0803 114.572 27.8552 97.6272 47.5725 97.6272L37.8166 64.9502Z" fill="#8C9EFF"/>
<path d="M82.183 64.9502C82.183 64.9502 107.343 67.3092 107.343 91.818C107.343 112.46 95.0523 118.549 91.1738 119.956C90.662 120.142 90.1407 119.714 90.2223 119.176C90.9193 114.572 92.1444 97.6272 72.4271 97.6272L82.183 64.9502Z" fill="#8C9EFF"/>
<path d="M82.1831 64.9502L81.7042 66.5538C89.1566 69.127 100.097 75.6558 100.097 91.8183C100.097 104.944 95.1274 112.184 90.5111 116.079C90.4621 117.353 90.3353 118.428 90.2221 119.176C90.1408 119.714 90.662 120.142 91.1737 119.956C95.0519 118.549 107.343 112.46 107.343 91.8183C107.343 67.3092 82.1831 64.9502 82.1831 64.9502Z" fill="#7488ED"/>
<path d="M87.4044 46.8681C87.4044 63.838 74.6757 97.5943 72.7914 102.499C72.6521 102.861 72.3048 103.099 71.9169 103.099H48.0831C47.695 103.099 47.3476 102.861 47.2086 102.499C45.3242 97.5943 32.5956 63.838 32.5956 46.8681C32.5956 16.7078 56.7564 1.7877 59.705 0.0791016C59.8871 -0.0263672 60.1103 -0.0263672 60.2924 0.0791016C63.2413 1.78746 87.4044 16.7075 87.4044 46.8681Z" fill="#229ADD"/>
<path d="M60.2932 0.0792773C60.1107 -0.0264258 59.8868 -0.0264258 59.7043 0.0792773C59.18 0.383027 57.9849 1.10584 56.3771 2.25404C63.8229 7.57201 80.1607 22.0655 80.1607 46.8678C80.1607 65.1943 65.3157 103.098 65.3157 103.098H71.9166C72.3047 103.098 72.6521 102.861 72.7911 102.499C74.6754 97.594 87.4041 63.8377 87.4041 46.8678C87.4046 16.7101 63.2459 1.78998 60.2932 0.0792773Z" fill="#1D84BE"/>
<path d="M60.0001 67.2437C70.268 67.2437 78.5917 58.9199 78.5917 48.6521C78.5917 38.3843 70.268 30.0605 60.0001 30.0605C49.7323 30.0605 41.4086 38.3843 41.4086 48.6521C41.4086 58.9199 49.7323 67.2437 60.0001 67.2437Z" fill="#BDF9FF"/>
<path d="M60.0001 28.3027C48.7794 28.3027 39.6508 37.4314 39.6508 48.6519C39.6508 59.8726 48.7794 69.0012 60.0001 69.0012C71.2208 69.0012 80.3495 59.8726 80.3495 48.6519C80.3495 37.4316 71.2208 28.3027 60.0001 28.3027ZM60.0001 65.4859C50.7179 65.4859 43.1664 57.9343 43.1664 48.6521C43.1664 39.3699 50.7179 31.8186 60.0001 31.8186C69.2823 31.8186 76.8339 39.3702 76.8339 48.6521C76.8339 57.9343 69.2823 65.4859 60.0001 65.4859Z" fill="#8C9EFF"/>
<g clip-path="url(#clip1)" filter="url(#filter0_f)">
<path d="M60.1519 47.0078C59.0532 47.0078 58.1597 47.9015 58.1597 49C58.1597 50.0985 59.0534 50.9922 60.1519 50.9922C61.2503 50.9922 62.144 50.0985 62.144 49C62.144 47.9015 61.2503 47.0078 60.1519 47.0078Z" fill="#04659C" fill-opacity="0.61"/>
<path d="M53.3984 51.4492C53.3984 50.76 52.8377 50.1992 52.1484 50.1992C51.4592 50.1992 50.8984 50.76 50.8984 51.4492C50.8984 52.1385 51.4592 52.6992 52.1484 52.6992C52.8377 52.6992 53.3984 52.1385 53.3984 51.4492Z" fill="#04659C" fill-opacity="0.61"/>
<path d="M67.1483 49C67.3474 48.7804 67.5345 48.5602 67.7075 48.3402C69.0506 46.6335 69.4429 45.0921 68.8124 44C68.1821 42.9079 66.651 42.477 64.5013 42.7868C63.1679 42.9789 61.674 43.4405 60.1531 44.1196C59.3514 43.7615 58.5573 43.4643 57.7902 43.2349C57.8665 43.0022 57.9477 42.7776 58.0339 42.5622C58.5039 41.3874 59.0927 40.5843 59.6762 40.2932C59.7928 39.7913 60.0658 39.3488 60.441 39.02C60.3453 39.0069 60.2489 39 60.152 39C58.891 39 57.7524 40.1105 56.9458 42.127C56.8419 42.387 56.7447 42.6591 56.6541 42.9413C56.3643 42.8786 56.08 42.8268 55.8029 42.7868C53.6536 42.4772 52.1225 42.9079 51.492 44C50.8615 45.0921 51.2538 46.6335 52.5967 48.3402C53.43 49.3992 54.5761 50.4624 55.925 51.4402C56.0159 52.3133 56.1554 53.1493 56.3403 53.928C56.1006 53.9783 55.8655 54.0203 55.6358 54.0534C54.3851 54.2336 53.3962 54.1256 52.8519 53.7668C52.6292 53.8346 52.393 53.8715 52.1484 53.8715C51.8744 53.8715 51.6112 53.825 51.3654 53.7408C51.4018 53.8299 51.4438 53.9164 51.492 54C51.9891 54.8612 53.046 55.3112 54.5248 55.3112C54.9214 55.3112 55.3485 55.2787 55.8031 55.2132C56.0802 55.1732 56.3644 55.1214 56.6542 55.0587C56.7447 55.3409 56.8419 55.6132 56.946 55.873C57.7524 57.8895 58.8911 59 60.152 59C61.413 59 62.5517 57.8895 63.3583 55.873C63.8586 54.6218 64.2067 53.0976 64.3791 51.4405C65.0897 50.9254 65.744 50.3866 66.3258 49.8371C66.4894 50.0196 66.6432 50.2022 66.7867 50.3844C67.5707 51.3808 67.9715 52.2941 67.93 52.9453C68.2922 53.2856 68.55 53.7354 68.6496 54.2417C68.7091 54.1649 68.7637 54.0845 68.8124 54C69.4431 52.9079 69.0506 51.3666 67.7077 49.6598C67.5345 49.4398 67.3474 49.2196 67.1483 49ZM64.6686 43.9467C66.264 43.7168 67.4338 43.9557 67.7976 44.5859C68.1615 45.2161 67.7835 46.3486 66.7867 47.6156C66.6432 47.7978 66.4894 47.9806 66.3258 48.1629C65.2184 47.1172 63.8492 46.1097 62.3279 45.2315C62.0706 45.0831 61.8123 44.9404 61.5537 44.8032C62.6486 44.3787 63.7065 44.0853 64.6686 43.9467ZM53.5178 47.6156C52.5209 46.3488 52.1431 45.2161 52.507 44.5859C52.8708 43.9557 54.0404 43.7168 55.636 43.9467C55.8656 43.9797 56.1008 44.0217 56.3405 44.072C55.9885 45.554 55.8005 47.2434 55.8005 49C55.8005 49.2969 55.8061 49.5919 55.8168 49.8844C54.9017 49.1486 54.1187 48.3793 53.5178 47.6156ZM56.9724 49C56.9724 47.3386 57.1474 45.7488 57.4748 44.363C58.8388 44.7722 60.3032 45.4157 61.7419 46.2464C63.1809 47.0769 64.4702 48.0233 65.5068 49C64.4702 49.9766 63.1809 50.9231 61.7419 51.7536C60.3032 52.5843 58.8388 53.2278 57.4748 53.637C57.1472 52.2512 56.9724 50.6614 56.9724 49ZM62.2702 55.4378C61.6715 56.9346 60.8797 57.8281 60.152 57.8281C59.4244 57.8281 58.6325 56.9346 58.0339 55.4378C57.9477 55.2224 57.8665 54.9978 57.7902 54.7651C59.2496 54.3288 60.8066 53.6468 62.3277 52.7685C62.5851 52.62 62.8378 52.4676 63.0859 52.3121C62.9062 53.4725 62.6312 54.5353 62.2702 55.4378Z" fill="#04659C" fill-opacity="0.61"/>
<path d="M66.2738 53.459C65.5844 53.459 65.0238 54.0197 65.0238 54.709C65.0238 55.3982 65.5844 55.959 66.2738 55.959C66.963 55.959 67.5238 55.3982 67.5238 54.709C67.5238 54.0197 66.9629 53.459 66.2738 53.459Z" fill="#04659C" fill-opacity="0.61"/>
<path d="M62.0353 42.0908C62.7245 42.0908 63.2853 41.5301 63.2853 40.8408C63.2853 40.1516 62.7245 39.5908 62.0353 39.5908C61.346 39.5908 60.7853 40.1516 60.7853 40.8408C60.7853 41.5301 61.346 42.0908 62.0353 42.0908Z" fill="#04659C" fill-opacity="0.61"/>
</g>
<g clip-path="url(#clip2)">
<path d="M60.1519 47.0078C59.0532 47.0078 58.1597 47.9015 58.1597 49C58.1597 50.0985 59.0534 50.9922 60.1519 50.9922C61.2503 50.9922 62.144 50.0985 62.144 49C62.144 47.9015 61.2503 47.0078 60.1519 47.0078Z" fill="#04659C" fill-opacity="0.61"/>
<path d="M53.3984 51.4492C53.3984 50.76 52.8377 50.1992 52.1484 50.1992C51.4592 50.1992 50.8984 50.76 50.8984 51.4492C50.8984 52.1385 51.4592 52.6992 52.1484 52.6992C52.8377 52.6992 53.3984 52.1385 53.3984 51.4492Z" fill="#04659C" fill-opacity="0.61"/>
<path d="M67.1483 49C67.3474 48.7804 67.5345 48.5602 67.7075 48.3402C69.0506 46.6335 69.4429 45.0921 68.8124 44C68.1821 42.9079 66.651 42.477 64.5013 42.7868C63.1679 42.9789 61.674 43.4405 60.1531 44.1196C59.3514 43.7615 58.5573 43.4643 57.7902 43.2349C57.8665 43.0022 57.9477 42.7776 58.0339 42.5622C58.5039 41.3874 59.0927 40.5843 59.6762 40.2932C59.7928 39.7913 60.0658 39.3488 60.441 39.02C60.3453 39.0069 60.2489 39 60.152 39C58.891 39 57.7524 40.1105 56.9458 42.127C56.8419 42.387 56.7447 42.6591 56.6541 42.9413C56.3643 42.8786 56.08 42.8268 55.8029 42.7868C53.6536 42.4772 52.1225 42.9079 51.492 44C50.8615 45.0921 51.2538 46.6335 52.5967 48.3402C53.43 49.3992 54.5761 50.4624 55.925 51.4402C56.0159 52.3133 56.1554 53.1493 56.3403 53.928C56.1006 53.9783 55.8655 54.0203 55.6358 54.0534C54.3851 54.2336 53.3962 54.1256 52.8519 53.7668C52.6292 53.8346 52.393 53.8715 52.1484 53.8715C51.8744 53.8715 51.6112 53.825 51.3654 53.7408C51.4018 53.8299 51.4438 53.9164 51.492 54C51.9891 54.8612 53.046 55.3112 54.5248 55.3112C54.9214 55.3112 55.3485 55.2787 55.8031 55.2132C56.0802 55.1732 56.3644 55.1214 56.6542 55.0587C56.7447 55.3409 56.8419 55.6132 56.946 55.873C57.7524 57.8895 58.8911 59 60.152 59C61.413 59 62.5517 57.8895 63.3583 55.873C63.8586 54.6218 64.2067 53.0976 64.3791 51.4405C65.0897 50.9254 65.744 50.3866 66.3258 49.8371C66.4894 50.0196 66.6432 50.2022 66.7867 50.3844C67.5707 51.3808 67.9715 52.2941 67.93 52.9453C68.2922 53.2856 68.55 53.7354 68.6496 54.2417C68.7091 54.1649 68.7637 54.0845 68.8124 54C69.4431 52.9079 69.0506 51.3666 67.7077 49.6598C67.5345 49.4398 67.3474 49.2196 67.1483 49ZM64.6686 43.9467C66.264 43.7168 67.4338 43.9557 67.7976 44.5859C68.1615 45.2161 67.7835 46.3486 66.7867 47.6156C66.6432 47.7978 66.4894 47.9806 66.3258 48.1629C65.2184 47.1172 63.8492 46.1097 62.3279 45.2315C62.0706 45.0831 61.8123 44.9404 61.5537 44.8032C62.6486 44.3787 63.7065 44.0853 64.6686 43.9467ZM53.5178 47.6156C52.5209 46.3488 52.1431 45.2161 52.507 44.5859C52.8708 43.9557 54.0404 43.7168 55.636 43.9467C55.8656 43.9797 56.1008 44.0217 56.3405 44.072C55.9885 45.554 55.8005 47.2434 55.8005 49C55.8005 49.2969 55.8061 49.5919 55.8168 49.8844C54.9017 49.1486 54.1187 48.3793 53.5178 47.6156ZM56.9724 49C56.9724 47.3386 57.1474 45.7488 57.4748 44.363C58.8388 44.7722 60.3032 45.4157 61.7419 46.2464C63.1809 47.0769 64.4702 48.0233 65.5068 49C64.4702 49.9766 63.1809 50.9231 61.7419 51.7536C60.3032 52.5843 58.8388 53.2278 57.4748 53.637C57.1472 52.2512 56.9724 50.6614 56.9724 49ZM62.2702 55.4378C61.6715 56.9346 60.8797 57.8281 60.152 57.8281C59.4244 57.8281 58.6325 56.9346 58.0339 55.4378C57.9477 55.2224 57.8665 54.9978 57.7902 54.7651C59.2496 54.3288 60.8066 53.6468 62.3277 52.7685C62.5851 52.62 62.8378 52.4676 63.0859 52.3121C62.9062 53.4725 62.6312 54.5353 62.2702 55.4378Z" fill="#04659C" fill-opacity="0.61"/>
<path d="M66.2738 53.459C65.5844 53.459 65.0238 54.0197 65.0238 54.709C65.0238 55.3982 65.5844 55.959 66.2738 55.959C66.963 55.959 67.5238 55.3982 67.5238 54.709C67.5238 54.0197 66.9629 53.459 66.2738 53.459Z" fill="#265CBC"/>
<path d="M62.0353 42.0908C62.7245 42.0908 63.2853 41.5301 63.2853 40.8408C63.2853 40.1516 62.7245 39.5908 62.0353 39.5908C61.346 39.5908 60.7853 40.1516 60.7853 40.8408C60.7853 41.5301 61.346 42.0908 62.0353 42.0908Z" fill="#04659C" fill-opacity="0.61"/>
</g>
</g>
<defs>
<filter id="filter0_f" x="40" y="29" width="40" height="40" filterUnits="userSpaceOnUse" color-interpolation-filters="sRGB">
<feFlood flood-opacity="0" result="BackgroundImageFix"/>
<feBlend mode="normal" in="SourceGraphic" in2="BackgroundImageFix" result="shape"/>
<feGaussianBlur stdDeviation="5" result="effect1_foregroundBlur"/>
</filter>
<clipPath id="clip0">
<rect width="120" height="120" fill="white"/>
</clipPath>
<clipPath id="clip1">
<rect width="20" height="20" fill="white" transform="translate(50 39)"/>
</clipPath>
<clipPath id="clip2">
<rect width="20" height="20" fill="white" transform="translate(50 39)"/>
</clipPath>
</defs>
</svg>
