<svg width="32" height="32" viewBox="0 0 32 32" fill="none" xmlns="http://www.w3.org/2000/svg">
<path d="M16.76 14.2C16.12 14.04 15.48 13.72 15 13.24C14.52 13.08 14.36 12.6 14.36 12.28C14.36 11.96 14.52 11.48 14.84 11.32C15.32 11 15.8 10.68 16.28 10.84C17.24 10.84 18.04 11.32 18.52 11.96L19.96 10.04C19.48 9.56 19 9.24 18.52 8.92C18.04 8.6 17.4 8.44 16.76 8.44V6.2H14.84V8.44C14.04 8.6 13.24 9.08 12.6 9.72C11.96 10.52 11.48 11.48 11.64 12.44C11.64 13.4 11.96 14.36 12.6 15C13.4 15.8 14.52 16.28 15.48 16.76C15.96 16.92 16.6 17.24 17.08 17.56C17.4 17.88 17.56 18.36 17.56 18.84C17.56 19.32 17.4 19.8 17.08 20.28C16.6 20.76 15.96 20.92 15.48 20.92C14.84 20.92 14.04 20.76 13.56 20.28C13.08 19.96 12.6 19.48 12.28 19L10.68 20.76C11.16 21.4 11.64 21.88 12.28 22.36C13.08 22.84 14.04 23.32 15 23.32V25.4H16.76V23C17.72 22.84 18.52 22.36 19.16 21.72C19.96 20.92 20.44 19.64 20.44 18.52C20.44 17.56 20.12 16.44 19.32 15.8C18.52 15 17.72 14.52 16.76 14.2V14.2ZM15.8 3C8.76 3 3 8.76 3 15.8C3 22.84 8.76 28.6 15.8 28.6C22.84 28.6 28.6 22.84 28.6 15.8C28.6 8.76 22.84 3 15.8 3ZM15.8 26.84C9.72 26.84 4.76 21.88 4.76 15.8C4.76 9.72 9.72 4.76 15.8 4.76C21.88 4.76 26.84 9.72 26.84 15.8C26.84 21.88 21.88 26.84 15.8 26.84V26.84Z" fill="#265CBC"/>
</svg>
