<svg width="32" height="32" viewBox="0 0 32 32" fill="none" xmlns="http://www.w3.org/2000/svg">
<path d="M16.96 14.4002C16.32 14.2402 15.68 13.9202 15.2 13.4402C14.72 13.2802 14.56 12.8002 14.56 12.4802C14.56 12.1602 14.7199 11.6802 15.0399 11.5202C15.5199 11.2002 16 10.8802 16.48 11.0402C17.44 11.0402 18.2399 11.5202 18.7199 12.1602L20.16 10.2402C19.68 9.7602 19.1999 9.44019 18.7199 9.12019C18.2399 8.80019 17.6 8.6402 16.96 8.6402V6.4002H15.0399V8.6402C14.2399 8.8002 13.44 9.28019 12.8 9.92019C12.16 10.7202 11.68 11.6802 11.84 12.6402C11.84 13.6002 12.16 14.5602 12.8 15.2002C13.6 16.0002 14.72 16.4802 15.68 16.9602C16.16 17.1202 16.8 17.4402 17.28 17.7602C17.6 18.0802 17.76 18.5602 17.76 19.0402C17.76 19.5202 17.6 20.0002 17.28 20.4802C16.8 20.9602 16.16 21.1202 15.68 21.1202C15.04 21.1202 14.24 20.9602 13.76 20.4802C13.28 20.1602 12.8 19.6802 12.48 19.2002L10.88 20.9602C11.36 21.6002 11.84 22.0802 12.48 22.5602C13.28 23.0402 14.24 23.5202 15.2 23.5202V25.6002H16.96V23.2002C17.92 23.0402 18.72 22.5602 19.36 21.9202C20.16 21.1202 20.6399 19.8402 20.6399 18.7202C20.6399 17.7602 20.3199 16.6402 19.5199 16.0002C18.7199 15.2002 17.92 14.7202 16.96 14.4002V14.4002ZM16 3.2002C8.95995 3.2002 3.19995 8.96019 3.19995 16.0002C3.19995 23.0402 8.95995 28.8002 16 28.8002C23.04 28.8002 28.7999 23.0402 28.7999 16.0002C28.7999 8.96019 23.04 3.2002 16 3.2002ZM16 27.0402C9.91995 27.0402 4.95995 22.0802 4.95995 16.0002C4.95995 9.92019 9.91995 4.9602 16 4.9602C22.0799 4.9602 27.0399 9.92019 27.0399 16.0002C27.0399 22.0802 22.0799 27.0402 16 27.0402V27.0402Z" fill="#D2D2D2"/>
</svg>
