<svg width="40" height="40" viewBox="0 0 40 40" fill="none" xmlns="http://www.w3.org/2000/svg">
<g filter="url(#filter0_i)">
<path d="M15.9883 18.285C15.085 18.285 14.3733 19.0767 14.3733 20.0434C14.3733 21.0067 15.1016 21.8017 15.9883 21.8017C16.89 21.8017 17.6016 21.0067 17.6016 20.0434C17.62 19.075 16.89 18.285 15.9883 18.285ZM21.7683 18.285C20.865 18.285 20.1533 19.0767 20.1533 20.0434C20.1533 21.0067 20.8816 21.8017 21.7683 21.8017C22.67 21.8017 23.3816 21.0067 23.3816 20.0434C23.38 19.075 22.67 18.285 21.7683 18.285Z" fill="#D2D2D2"/>
<path d="M29.4633 5H8.24501C7.81778 5.00109 7.39494 5.08633 7.00065 5.25083C6.60635 5.41534 6.24832 5.65589 5.94699 5.95877C5.64567 6.26164 5.40695 6.6209 5.24446 7.01603C5.08198 7.41117 4.99891 7.83443 5.00001 8.26167V29.6683C5.00001 31.4733 6.45668 32.93 8.24501 32.93H26.2L25.3583 29.9983L27.3867 31.8833L29.3017 33.6567L32.7083 36.6667V8.26167C32.7094 7.83443 32.6264 7.41117 32.4639 7.01603C32.3014 6.6209 32.0627 6.26164 31.7614 5.95877C31.46 5.65589 31.102 5.41534 30.7077 5.25083C30.3134 5.08633 29.8906 5.00109 29.4633 5V5ZM23.35 25.6783C23.35 25.6783 22.78 24.9983 22.3067 24.3933C24.38 23.8067 25.1717 22.51 25.1717 22.51C24.5217 22.9367 23.905 23.24 23.35 23.4467C21.3295 24.2923 19.1044 24.523 16.9533 24.11C16.1585 23.9539 15.3797 23.7251 14.6267 23.4267C14.2295 23.2758 13.8436 23.097 13.4717 22.8917C13.4233 22.8567 13.3767 22.8433 13.33 22.8117C13.305 22.7998 13.2829 22.7828 13.265 22.7617C12.98 22.605 12.8217 22.495 12.8217 22.495C12.8217 22.495 13.5817 23.7617 15.5933 24.3633C15.1183 24.9633 14.5317 25.6783 14.5317 25.6783C11.0333 25.5667 9.70501 23.2717 9.70501 23.2717C9.70501 18.1733 11.985 14.0417 11.985 14.0417C14.265 12.33 16.4333 12.3783 16.4333 12.3783L16.5917 12.5683C13.7417 13.3933 12.4267 14.6433 12.4267 14.6433C12.4267 14.6433 12.7767 14.4533 13.3617 14.185C15.055 13.4417 16.4 13.235 16.955 13.1867C17.05 13.1717 17.13 13.155 17.225 13.155C19.9704 12.785 22.7619 13.3068 25.1883 14.6433C25.1883 14.6433 23.9367 13.4567 21.245 12.6333L21.4667 12.38C21.4667 12.38 23.6367 12.3317 25.915 14.0433C25.915 14.0433 28.195 18.175 28.195 23.2733C28.195 23.2717 26.85 25.5667 23.35 25.6783V25.6783Z" fill="#D2D2D2"/>
</g>
<defs>
<filter id="filter0_i" x="0" y="0" width="40" height="44" filterUnits="userSpaceOnUse" color-interpolation-filters="sRGB">
<feFlood flood-opacity="0" result="BackgroundImageFix"/>
<feBlend mode="normal" in="SourceGraphic" in2="BackgroundImageFix" result="shape"/>
<feColorMatrix in="SourceAlpha" type="matrix" values="0 0 0 0 0 0 0 0 0 0 0 0 0 0 0 0 0 0 127 0" result="hardAlpha"/>
<feOffset dy="4"/>
<feGaussianBlur stdDeviation="5.5"/>
<feComposite in2="hardAlpha" operator="arithmetic" k2="-1" k3="1"/>
<feColorMatrix type="matrix" values="0 0 0 0 0.14902 0 0 0 0 0.360784 0 0 0 0 0.737255 0 0 0 0.25 0"/>
<feBlend mode="normal" in2="shape" result="effect1_innerShadow"/>
</filter>
</defs>
</svg>
