<svg width="55" height="55" viewBox="0 0 55 55" fill="none" xmlns="http://www.w3.org/2000/svg">
<path d="M45.9748 42.8483C48.4432 39.8785 50.1599 36.3578 50.9799 32.5842C51.7998 28.8106 51.6988 24.895 50.6854 21.1687C49.672 17.4424 47.776 14.0149 45.1578 11.1763C42.5397 8.33772 39.2763 6.17146 35.6439 4.86079C32.0115 3.55013 28.1168 3.13361 24.2893 3.64649C20.4619 4.15936 16.8142 5.58654 13.655 7.80728C10.4957 10.028 7.91785 12.977 6.13936 16.4048C4.36088 19.8325 3.43413 23.6382 3.43751 27.4998C3.43881 33.1136 5.41707 38.5476 9.02517 42.8483L8.99079 42.8775C9.1111 43.0219 9.2486 43.1456 9.37235 43.2883C9.52704 43.4653 9.69376 43.632 9.8536 43.8039C10.3349 44.3264 10.8299 44.8283 11.3489 45.2992C11.507 45.4436 11.6703 45.5777 11.8302 45.7152C12.3802 46.1895 12.9456 46.6398 13.5317 47.0592C13.6074 47.1108 13.6761 47.1778 13.7517 47.2311V47.2105C17.7772 50.0433 22.5794 51.5636 27.5017 51.5636C32.424 51.5636 37.2262 50.0433 41.2517 47.2105V47.2311C41.3274 47.1778 41.3944 47.1108 41.4717 47.0592C42.0561 46.6381 42.6233 46.1895 43.1733 45.7152C43.3331 45.5777 43.4964 45.4419 43.6545 45.2992C44.1736 44.8266 44.6686 44.3264 45.1498 43.8039C45.3097 43.632 45.4747 43.4653 45.6311 43.2883C45.7531 43.1456 45.8923 43.0219 46.0127 42.8758L45.9748 42.8483ZM27.5 13.7498C29.0297 13.7498 30.5251 14.2035 31.797 15.0533C33.0689 15.9032 34.0602 17.1111 34.6456 18.5244C35.231 19.9377 35.3842 21.4928 35.0858 22.9931C34.7873 24.4934 34.0507 25.8716 32.969 26.9533C31.8874 28.0349 30.5092 28.7716 29.0089 29.07C27.5086 29.3684 25.9535 29.2153 24.5402 28.6299C23.1269 28.0445 21.919 27.0531 21.0691 25.7812C20.2192 24.5093 19.7656 23.0139 19.7656 21.4842C19.7656 19.4329 20.5805 17.4657 22.031 16.0152C23.4815 14.5647 25.4487 13.7498 27.5 13.7498ZM13.762 42.8483C13.7919 40.5915 14.709 38.4372 16.315 36.8515C17.921 35.2657 20.0868 34.376 22.3438 34.3748H32.6563C34.9132 34.376 37.079 35.2657 38.685 36.8515C40.291 38.4372 41.2082 40.5915 41.238 42.8483C37.4685 46.2451 32.5742 48.125 27.5 48.125C22.4258 48.125 17.5315 46.2451 13.762 42.8483Z" fill="white"/>
</svg>
