<svg width="64" height="64" viewBox="0 0 64 64" fill="none" xmlns="http://www.w3.org/2000/svg">
<path d="M32 4C16.5375 4 4 16.5375 4 32C4 47.4625 16.5375 60 32 60C47.4625 60 60 47.4625 60 32C60 16.5375 47.4625 4 32 4ZM32 55.25C19.1625 55.25 8.75 44.8375 8.75 32C8.75 19.1625 19.1625 8.75 32 8.75C44.8375 8.75 55.25 19.1625 55.25 32C55.25 44.8375 44.8375 55.25 32 55.25Z" fill="#D2D2D2"/>
<path d="M29 21C29 21.7956 29.3161 22.5587 29.8787 23.1213C30.4413 23.6839 31.2044 24 32 24C32.7956 24 33.5587 23.6839 34.1213 23.1213C34.6839 22.5587 35 21.7956 35 21C35 20.2044 34.6839 19.4413 34.1213 18.8787C33.5587 18.3161 32.7956 18 32 18C31.2044 18 30.4413 18.3161 29.8787 18.8787C29.3161 19.4413 29 20.2044 29 21ZM33.5 28H30.5C30.225 28 30 28.225 30 28.5V45.5C30 45.775 30.225 46 30.5 46H33.5C33.775 46 34 45.775 34 45.5V28.5C34 28.225 33.775 28 33.5 28Z" fill="#D2D2D2"/>
</svg>
