<svg xmlns="http://www.w3.org/2000/svg" width="40" height="40" fill="none" viewBox="0 0 40 40"><path fill="#D2D2D2" fill-rule="evenodd" d="M12.9914 3.102C14.8042 3.01855 15.3822 3 20 3C24.6178 3 25.1958 3.02009 27.0071 3.102C28.8184 3.18391 30.0547 3.47291 31.1365 3.89173C32.2694 4.31982 33.2971 4.989 34.1471 5.85445C35.0125 6.70291 35.6802 7.72909 36.1067 8.86345C36.5271 9.94527 36.8145 11.1816 36.898 12.9898C36.9815 14.8057 37 15.3837 37 20C37 24.6178 36.9799 25.1958 36.898 27.0086C36.8161 28.8168 36.5271 30.0532 36.1067 31.135C35.6802 32.2695 35.0114 33.2974 34.1471 34.1471C33.2971 35.0125 32.2694 35.6802 31.1365 36.1067C30.0547 36.5271 28.8184 36.8145 27.0102 36.898C25.1958 36.9815 24.6178 37 20 37C15.3822 37 14.8042 36.9799 12.9914 36.898C11.1832 36.8161 9.94682 36.5271 8.865 36.1067C7.73051 35.6801 6.70263 35.0114 5.85291 34.1471C4.98804 33.2981 4.31876 32.2707 3.89173 31.1365C3.47291 30.0547 3.18545 28.8184 3.102 27.0102C3.01855 25.1943 3 24.6163 3 20C3 15.3822 3.02009 14.8042 3.102 12.9929C3.18391 11.1816 3.47291 9.94527 3.89173 8.86345C4.31939 7.72922 4.98918 6.70185 5.85445 5.85291C6.70297 4.98823 7.72982 4.31896 8.86345 3.89173C9.94527 3.47291 11.1816 3.18545 12.9898 3.102H12.9914ZM26.8695 6.162C25.0768 6.08009 24.539 6.06309 20 6.06309C15.461 6.06309 14.9232 6.08009 13.1305 6.162C11.4722 6.23773 10.5727 6.51436 9.97309 6.74773C9.18027 7.05682 8.61309 7.42309 8.01809 8.01809C7.45407 8.56681 7.02001 9.2348 6.74773 9.97309C6.51436 10.5727 6.23773 11.4722 6.162 13.1305C6.08009 14.9232 6.06309 15.461 6.06309 20C6.06309 24.539 6.08009 25.0768 6.162 26.8695C6.23773 28.5278 6.51436 29.4273 6.74773 30.0269C7.01973 30.7641 7.454 31.4333 8.01809 31.9819C8.56673 32.546 9.23591 32.9803 9.97309 33.2523C10.5727 33.4856 11.4722 33.7623 13.1305 33.838C14.9232 33.9199 15.4595 33.9369 20 33.9369C24.5405 33.9369 25.0768 33.9199 26.8695 33.838C28.5278 33.7623 29.4273 33.4856 30.0269 33.2523C30.8197 32.9432 31.3869 32.5769 31.9819 31.9819C32.546 31.4333 32.9803 30.7641 33.2523 30.0269C33.4856 29.4273 33.7623 28.5278 33.838 26.8695C33.9199 25.0768 33.9369 24.539 33.9369 20C33.9369 15.461 33.9199 14.9232 33.838 13.1305C33.7623 11.4722 33.4856 10.5727 33.2523 9.97309C32.9432 9.18027 32.5769 8.61309 31.9819 8.01809C31.4332 7.45411 30.7652 7.02005 30.0269 6.74773C29.4273 6.51436 28.5278 6.23773 26.8695 6.162V6.162ZM17.8286 25.2406C19.0413 25.7454 20.3916 25.8136 21.6489 25.4334C22.9062 25.0532 23.9925 24.2483 24.7223 23.1562C25.4521 22.0641 25.7801 20.7524 25.6503 19.4453C25.5204 18.1383 24.9408 16.9168 24.0105 15.9895C23.4174 15.3968 22.7002 14.943 21.9107 14.6607C21.1212 14.3784 20.2788 14.2746 19.4444 14.357C18.61 14.4393 17.8041 14.7055 17.085 15.1367C16.3658 15.5678 15.7511 16.153 15.2853 16.8501C14.8194 17.5473 14.5139 18.3391 14.3908 19.1685C14.2677 19.9979 14.33 20.8443 14.5732 21.6467C14.8164 22.4491 15.2346 23.1877 15.7975 23.8091C16.3604 24.4306 17.0541 24.9195 17.8286 25.2406ZM13.8213 13.8213C14.6327 13.0099 15.5959 12.3662 16.6561 11.9271C17.7162 11.488 18.8525 11.262 20 11.262C21.1475 11.262 22.2838 11.488 23.3439 11.9271C24.4041 12.3662 25.3673 13.0099 26.1787 13.8213C26.9901 14.6327 27.6338 15.5959 28.0729 16.6561C28.512 17.7162 28.738 18.8525 28.738 20C28.738 21.1475 28.512 22.2838 28.0729 23.3439C27.6338 24.4041 26.9901 25.3673 26.1787 26.1787C24.54 27.8174 22.3175 28.738 20 28.738C17.6825 28.738 15.46 27.8174 13.8213 26.1787C12.1826 24.54 11.262 22.3175 11.262 20C11.262 17.6825 12.1826 15.46 13.8213 13.8213V13.8213ZM30.676 12.5633C30.8771 12.3736 31.038 12.1455 31.1494 11.8925C31.2607 11.6395 31.3202 11.3667 31.3242 11.0903C31.3282 10.814 31.2768 10.5396 31.1728 10.2834C31.0689 10.0273 30.9147 9.79461 30.7192 9.59915C30.5238 9.4037 30.2911 9.24944 30.0349 9.14553C29.7788 9.04161 29.5044 8.99014 29.228 8.99417C28.9516 8.9982 28.6789 9.05765 28.4259 9.16899C28.1729 9.28032 27.9448 9.44129 27.7551 9.64236C27.3862 10.0334 27.1842 10.5528 27.1921 11.0903C27.1999 11.6279 27.4169 12.1412 27.7971 12.5213C28.1772 12.9014 28.6905 13.1184 29.228 13.1263C29.7655 13.1341 30.285 12.9322 30.676 12.5633V12.5633Z" clip-rule="evenodd"/></svg>