<svg width="40" height="40" viewBox="0 0 40 40" fill="none" xmlns="http://www.w3.org/2000/svg">
<g filter="url(#filter0_i)">
<path fill-rule="evenodd" clip-rule="evenodd" d="M26.6668 14.9999C26.6668 16.768 25.9645 18.4637 24.7142 19.714C23.464 20.9642 21.7683 21.6666 20.0002 21.6666C18.2321 21.6666 16.5364 20.9642 15.2861 19.714C14.0359 18.4637 13.3335 16.768 13.3335 14.9999C13.3335 13.2318 14.0359 11.5361 15.2861 10.2859C16.5364 9.03563 18.2321 8.33325 20.0002 8.33325C21.7683 8.33325 23.464 9.03563 24.7142 10.2859C25.9645 11.5361 26.6668 13.2318 26.6668 14.9999V14.9999ZM23.3335 14.9999C23.3335 15.884 22.9823 16.7318 22.3572 17.3569C21.7321 17.9821 20.8842 18.3333 20.0002 18.3333C19.1161 18.3333 18.2683 17.9821 17.6431 17.3569C17.018 16.7318 16.6668 15.884 16.6668 14.9999C16.6668 14.1159 17.018 13.268 17.6431 12.6429C18.2683 12.0178 19.1161 11.6666 20.0002 11.6666C20.8842 11.6666 21.7321 12.0178 22.3572 12.6429C22.9823 13.268 23.3335 14.1159 23.3335 14.9999V14.9999Z" fill="#D2D2D2"/>
<path fill-rule="evenodd" clip-rule="evenodd" d="M20.0001 1.66663C9.87508 1.66663 1.66675 9.87496 1.66675 20C1.66675 30.125 9.87508 38.3333 20.0001 38.3333C30.1251 38.3333 38.3334 30.125 38.3334 20C38.3334 9.87496 30.1251 1.66663 20.0001 1.66663ZM5.00008 20C5.00008 23.4833 6.18841 26.69 8.18008 29.2366C9.5788 27.3998 11.3832 25.9112 13.4525 24.8871C15.5217 23.8631 17.7997 23.3313 20.1084 23.3333C22.3873 23.3311 24.6366 23.8492 26.685 24.8479C28.7333 25.8467 30.5267 27.2998 31.9284 29.0966C33.3725 27.2026 34.3448 24.992 34.7649 22.6476C35.185 20.3032 35.0408 17.8925 34.3442 15.6149C33.6477 13.3373 32.4188 11.2584 30.7592 9.55002C29.0997 7.84167 27.0572 6.55306 24.8007 5.79081C22.5443 5.02856 20.1387 4.81458 17.7832 5.16658C15.4276 5.51858 13.1897 6.42644 11.2547 7.81505C9.31966 9.20365 7.7431 11.0331 6.65546 13.152C5.56783 15.2708 5.00038 17.6182 5.00008 20V20ZM20.0001 35C16.5567 35.0051 13.2172 33.8205 10.5467 31.6466C11.6216 30.1078 13.0523 28.8515 14.7171 27.9844C16.3818 27.1174 18.2314 26.6653 20.1084 26.6666C21.962 26.6651 23.7892 27.1059 25.4383 27.9523C27.0874 28.7987 28.5107 30.0264 29.5901 31.5333C26.8989 33.7778 23.5044 35.0049 20.0001 35V35Z" fill="#D2D2D2"/>
</g>
<defs>
<filter id="filter0_i" x="0" y="0" width="40" height="44" filterUnits="userSpaceOnUse" color-interpolation-filters="sRGB">
<feFlood flood-opacity="0" result="BackgroundImageFix"/>
<feBlend mode="normal" in="SourceGraphic" in2="BackgroundImageFix" result="shape"/>
<feColorMatrix in="SourceAlpha" type="matrix" values="0 0 0 0 0 0 0 0 0 0 0 0 0 0 0 0 0 0 127 0" result="hardAlpha"/>
<feOffset dy="4"/>
<feGaussianBlur stdDeviation="5.5"/>
<feComposite in2="hardAlpha" operator="arithmetic" k2="-1" k3="1"/>
<feColorMatrix type="matrix" values="0 0 0 0 0.14902 0 0 0 0 0.360784 0 0 0 0 0.737255 0 0 0 0.25 0"/>
<feBlend mode="normal" in2="shape" result="effect1_innerShadow"/>
</filter>
</defs>
</svg>
