<svg width="40" height="40" viewBox="0 0 40 40" fill="none" xmlns="http://www.w3.org/2000/svg">
<g filter="url(#filter0_i)">
<path d="M29.9999 3.33337C28.4999 3.33337 26.6666 5.00004 26.6666 6.66671H13.3333C13.3333 5.00004 11.4999 3.33337 9.99992 3.33337H3.33325V18.3334C3.33325 20 4.99992 21.6667 6.66659 21.6667H10.3333C10.9999 25 13.1666 27.8334 18.3333 28.3334V31.8C13.3333 32.5667 13.3333 36.6667 13.3333 36.6667H26.6666C26.6666 36.6667 26.6666 32.5667 21.6666 31.8V28.3334C26.8333 27.8334 28.9999 25 29.6666 21.6667H33.3333C34.9999 21.6667 36.6666 20 36.6666 18.3334V3.33337H29.9999ZM9.99992 18.3334H6.66659V6.66671H9.99992V18.3334ZM33.3333 18.3334H29.9999V6.66671H33.3333V18.3334Z" fill="#D2D2D2"/>
</g>
<defs>
<filter id="filter0_i" x="3.33325" y="3.33337" width="33.3333" height="37.3333" filterUnits="userSpaceOnUse" color-interpolation-filters="sRGB">
<feFlood flood-opacity="0" result="BackgroundImageFix"/>
<feBlend mode="normal" in="SourceGraphic" in2="BackgroundImageFix" result="shape"/>
<feColorMatrix in="SourceAlpha" type="matrix" values="0 0 0 0 0 0 0 0 0 0 0 0 0 0 0 0 0 0 127 0" result="hardAlpha"/>
<feOffset dy="4"/>
<feGaussianBlur stdDeviation="5.5"/>
<feComposite in2="hardAlpha" operator="arithmetic" k2="-1" k3="1"/>
<feColorMatrix type="matrix" values="0 0 0 0 0.14902 0 0 0 0 0.360784 0 0 0 0 0.737255 0 0 0 0.25 0"/>
<feBlend mode="normal" in2="shape" result="effect1_innerShadow"/>
</filter>
</defs>
</svg>
