<svg xmlns="http://www.w3.org/2000/svg" width="32" height="32" fill="none" viewBox="0 0 32 32"><path fill="#D2D2D2" fill-rule="evenodd" d="M14.622 8.22181L16.3286 6.51514C17.7025 5.13914 20.1153 4.18554 22.511 3.84208C23.5732 3.6766 24.6534 3.66224 25.7196 3.79941C26.6646 3.94021 27.2428 4.21754 27.5116 4.48848C27.7825 4.75728 28.0598 5.33541 28.2006 6.28048C28.3372 7.19141 28.3265 8.30714 28.158 9.48901C27.8166 11.8847 26.8609 14.2975 25.4849 15.6714L16.0001 25.1583L13.5553 22.7135C13.4563 22.6144 13.3387 22.5357 13.2092 22.4819C13.0798 22.4282 12.941 22.4005 12.8008 22.4004C12.6607 22.4003 12.5219 22.4278 12.3924 22.4814C12.2628 22.5349 12.1451 22.6134 12.046 22.7125C11.8457 22.9125 11.733 23.1839 11.7328 23.4669C11.7327 23.6071 11.7602 23.7459 11.8138 23.8754C11.8673 24.0049 11.9459 24.1226 12.0449 24.2218L15.2449 27.4218C15.344 27.5211 15.4617 27.6 15.5913 27.6537C15.7209 27.7075 15.8598 27.7352 16.0001 27.7352C16.1404 27.7352 16.2793 27.7075 16.4089 27.6537C16.5385 27.6 16.6562 27.5211 16.7553 27.4218L17.9222 26.2527L20.4182 30.4149C20.5015 30.5542 20.6154 30.6728 20.7514 30.7614C20.8874 30.8501 21.0418 30.9066 21.2029 30.9265C21.364 30.9465 21.5275 30.9294 21.681 30.8766C21.8345 30.8238 21.9739 30.7367 22.0886 30.6218L26.3553 26.3551C26.4725 26.2378 26.5606 26.0948 26.6129 25.9374C26.6651 25.78 26.6799 25.6126 26.6561 25.4485L25.6641 18.5109L26.9953 17.1818C28.8193 15.3557 29.8924 12.4351 30.27 9.78981C30.462 8.45221 30.4833 7.12315 30.3105 5.96261C30.1398 4.83621 29.7644 3.72261 29.022 2.97808C28.2774 2.23568 27.1638 1.85808 26.0353 1.68954C24.7647 1.52228 23.4768 1.53664 22.2102 1.73221C19.5628 2.10554 16.6401 3.17861 14.8182 5.00261L13.4892 6.33381L6.55156 5.34181C6.38745 5.31802 6.22006 5.33283 6.06267 5.38504C5.90529 5.43726 5.76224 5.52545 5.6449 5.64261L1.37823 9.90928C1.26339 10.024 1.17625 10.1634 1.12344 10.3169C1.07064 10.4704 1.05356 10.6339 1.07352 10.795C1.09348 10.9561 1.14994 11.1106 1.2386 11.2465C1.32727 11.3825 1.4458 11.4964 1.58516 11.5797L5.74516 14.0757L4.57823 15.2426C4.47889 15.3417 4.40008 15.4594 4.34631 15.589C4.29253 15.7186 4.26486 15.8575 4.26486 15.9978C4.26486 16.1381 4.29253 16.277 4.34631 16.4066C4.40008 16.5362 4.47889 16.6539 4.57823 16.753L7.77823 19.953C7.8774 20.0522 7.99514 20.1309 8.12472 20.1845C8.25429 20.2382 8.39317 20.2658 8.53343 20.2658C8.67368 20.2658 8.81256 20.2382 8.94214 20.1845C9.07172 20.1309 9.18945 20.0522 9.28863 19.953C9.3878 19.8538 9.46647 19.7361 9.52015 19.6065C9.57382 19.4769 9.60144 19.3381 9.60144 19.1978C9.60144 19.0576 9.57382 18.9187 9.52015 18.7891C9.46647 18.6595 9.3878 18.5418 9.28863 18.4426L6.8417 15.9999L8.22196 14.6218L14.622 8.22181ZM21.5446 28.1471L19.4753 24.6975L23.7782 20.3967L24.4694 25.2223L21.5468 28.145L21.5446 28.1471ZM7.3025 12.5226L11.6033 8.22181L6.7777 7.53061L3.85503 10.4533L7.3025 12.5226ZM5.01983 22.0885C5.119 21.9894 5.1977 21.8718 5.25143 21.7424C5.30515 21.613 5.33286 21.4742 5.33296 21.334C5.33305 21.1939 5.30555 21.0551 5.252 20.9256C5.19846 20.796 5.11993 20.6783 5.0209 20.5791C4.92186 20.48 4.80426 20.4013 4.67482 20.3475C4.54537 20.2938 4.4066 20.2661 4.26645 20.266C4.1263 20.2659 3.98749 20.2934 3.85797 20.347C3.72845 20.4005 3.61074 20.479 3.51156 20.5781L1.37823 22.7114C1.17822 22.9117 1.06597 23.1832 1.06617 23.4663C1.06637 23.7494 1.179 24.0207 1.3793 24.2207C1.57959 24.4208 1.85113 24.533 2.13418 24.5328C2.41724 24.5326 2.68862 24.42 2.88863 24.2197L5.02196 22.0863L5.01983 22.0885ZM8.21983 25.2885C8.32171 25.1901 8.40297 25.0724 8.45887 24.9422C8.51477 24.8121 8.5442 24.6721 8.54543 24.5305C8.54666 24.3889 8.51967 24.2484 8.46604 24.1173C8.41241 23.9862 8.3332 23.8671 8.23305 23.767C8.1329 23.6668 8.0138 23.5876 7.88271 23.534C7.75162 23.4804 7.61117 23.4534 7.46953 23.4546C7.3279 23.4558 7.18793 23.4853 7.0578 23.5412C6.92766 23.5971 6.80996 23.6783 6.71156 23.7802L2.4449 28.0469C2.24489 28.2472 2.13264 28.5187 2.13284 28.8018C2.13304 29.0848 2.24567 29.3562 2.44596 29.5562C2.64625 29.7562 2.91779 29.8685 3.20085 29.8683C3.4839 29.8681 3.75529 29.7554 3.9553 29.5551L8.22196 25.2885H8.21983ZM11.4198 28.4885C11.519 28.3894 11.5977 28.2718 11.6514 28.1424C11.7052 28.013 11.7329 27.8742 11.733 27.734C11.7331 27.5939 11.7055 27.4551 11.652 27.3256C11.5985 27.196 11.5199 27.0783 11.4209 26.9791C11.3219 26.88 11.2043 26.8013 11.0748 26.7475C10.9454 26.6938 10.8066 26.6661 10.6664 26.666C10.5263 26.6659 10.3875 26.6934 10.258 26.747C10.1284 26.8005 10.0107 26.879 9.91156 26.9781L7.77823 29.1114C7.57822 29.3117 7.46597 29.5832 7.46617 29.8663C7.46637 30.1494 7.579 30.4207 7.7793 30.6207C7.97959 30.8208 8.25113 30.933 8.53418 30.9328C8.81724 30.9326 9.08862 30.82 9.28863 30.6197L11.422 28.4863L11.4198 28.4885ZM20.2668 14.3957C20.9734 14.3957 21.6512 14.115 22.1509 13.6153C22.6506 13.1156 22.9313 12.4378 22.9313 11.7311C22.9313 11.0245 22.6506 10.3467 22.1509 9.84704C21.6512 9.34734 20.9734 9.06661 20.2668 9.06661C19.5601 9.06661 18.8823 9.34734 18.3827 9.84704C17.883 10.3467 17.6022 11.0245 17.6022 11.7311C17.6022 12.4378 17.883 13.1156 18.3827 13.6153C18.8823 14.115 19.5601 14.3957 20.2668 14.3957V14.3957Z" clip-rule="evenodd"/></svg>