<svg width="30" height="27" viewBox="0 0 30 27" fill="none" xmlns="http://www.w3.org/2000/svg">
<path d="M22 17.6828C22 19.1367 20.8133 20.3025 19.3333 20.3025C17.8533 20.3025 16.6667 19.1367 16.6667 17.6828C16.6667 16.2289 17.8667 15.0631 19.3333 15.0631C20.8 15.0631 22 16.242 22 17.6828ZM10 15.0631C8.53333 15.0631 7.33333 16.242 7.33333 17.6828C7.33333 19.1236 8.53333 20.3025 10 20.3025C11.4667 20.3025 12.6667 19.1367 12.6667 17.6828C12.6667 16.2289 11.48 15.0631 10 15.0631ZM29.3333 17.0279V20.9574C29.3333 21.6778 28.7333 22.2672 28 22.2672H26.6667V23.5771C26.6667 25.031 25.48 26.1967 24 26.1967H5.33333C4.62609 26.1967 3.94781 25.9207 3.44771 25.4295C2.94762 24.9382 2.66667 24.2719 2.66667 23.5771V22.2672H1.33333C0.6 22.2672 0 21.6778 0 20.9574V17.0279C0 16.3075 0.6 15.718 1.33333 15.718H2.66667C2.66667 10.649 6.84 6.54919 12 6.54919H13.3333V4.88569C12.5333 4.44035 12 3.58895 12 2.61967C12 1.17885 13.2 0 14.6667 0C16.1333 0 17.3333 1.17885 17.3333 2.61967C17.3333 3.58895 16.8 4.44035 16 4.88569V6.54919H17.3333C22.4933 6.54919 26.6667 10.649 26.6667 15.718H28C28.7333 15.718 29.3333 16.3075 29.3333 17.0279ZM26.6667 18.3377H24V15.718C24 12.1029 21.0133 9.16886 17.3333 9.16886H12C8.32 9.16886 5.33333 12.1029 5.33333 15.718V18.3377H2.66667V19.6476H5.33333V23.5771H24V19.6476H26.6667V18.3377Z" fill="#D2D2D2"/>
</svg>
