<svg width="30" height="28" viewBox="0 0 30 28" fill="none" xmlns="http://www.w3.org/2000/svg">
<path d="M22 18.2945C22 19.7988 20.8133 21.0048 19.3333 21.0048C17.8533 21.0048 16.6667 19.7988 16.6667 18.2945C16.6667 16.7903 17.8667 15.5842 19.3333 15.5842C20.8 15.5842 22 16.8039 22 18.2945ZM10 15.5842C8.53333 15.5842 7.33333 16.8039 7.33333 18.2945C7.33333 19.7852 8.53333 21.0048 10 21.0048C11.4667 21.0048 12.6667 19.7988 12.6667 18.2945C12.6667 16.7903 11.48 15.5842 10 15.5842ZM29.3333 17.617V21.6824C29.3333 22.4278 28.7333 23.0376 28 23.0376H26.6667V24.3927C26.6667 25.8969 25.48 27.103 24 27.103H5.33333C4.62609 27.103 3.94781 26.8175 3.44771 26.3092C2.94762 25.8009 2.66667 25.1115 2.66667 24.3927V23.0376H1.33333C0.6 23.0376 0 22.4278 0 21.6824V17.617C0 16.8716 0.6 16.2618 1.33333 16.2618H2.66667C2.66667 11.0174 6.84 6.77576 12 6.77576H13.3333V5.05471C12.5333 4.59396 12 3.71311 12 2.7103C12 1.21964 13.2 0 14.6667 0C16.1333 0 17.3333 1.21964 17.3333 2.7103C17.3333 3.71311 16.8 4.59396 16 5.05471V6.77576H17.3333C22.4933 6.77576 26.6667 11.0174 26.6667 16.2618H28C28.7333 16.2618 29.3333 16.8716 29.3333 17.617ZM26.6667 18.9721H24V16.2618C24 12.5216 21.0133 9.48606 17.3333 9.48606H12C8.32 9.48606 5.33333 12.5216 5.33333 16.2618V18.9721H2.66667V20.3273H5.33333V24.3927H24V20.3273H26.6667V18.9721Z" fill="#265CBC"/>
</svg>
