<svg width="32" height="32" viewBox="0 0 32 32" fill="none" xmlns="http://www.w3.org/2000/svg">
<path d="M19.9601 12.8222C20.3522 12.8223 20.7307 12.9664 21.0236 13.2272C21.3165 13.4879 21.5034 13.8471 21.5489 14.2366L21.5601 14.4222V21.411C21.5706 22.87 21.0086 24.2749 19.9948 25.3242C18.9811 26.3735 17.5963 26.9835 16.1379 27.0233C14.6794 27.0631 13.2635 26.5295 12.194 25.537C11.1245 24.5446 10.4868 23.1724 10.4177 21.715L10.4097 21.411V14.4222C10.4098 14.0301 10.5539 13.6516 10.8146 13.3587C11.0754 13.0659 11.4346 12.8789 11.8241 12.8334L12.0097 12.8222H19.9601ZM19.9601 14.4222H12.0097V21.411C12.0074 22.4441 12.4074 23.4374 13.1249 24.1805C13.8425 24.9237 14.8212 25.3583 15.8536 25.3922C16.8861 25.4261 17.8912 25.0567 18.656 24.3622C19.4207 23.6677 19.885 22.7028 19.9505 21.6718L19.9601 21.411V14.4222ZM9.2401 12.8222C9.00729 13.2239 8.86529 13.6718 8.82409 14.1342L8.8097 14.4222H4.8257V20.4062C4.82552 20.9023 4.94963 21.3905 5.18668 21.8263C5.42373 22.262 5.76617 22.6315 6.18273 22.9009C6.59929 23.1702 7.07669 23.331 7.57135 23.3684C8.06601 23.4058 8.56216 23.3187 9.01449 23.115C9.14249 23.6414 9.3281 24.1454 9.5665 24.619C8.89276 24.902 8.161 25.0192 7.43259 24.961C6.70418 24.9027 6.00036 24.6705 5.3802 24.2841C4.76003 23.8976 4.2416 23.368 3.86839 22.7397C3.49518 22.1115 3.27807 21.4029 3.2353 20.6734L3.22729 20.4046V14.4222C3.22735 14.0303 3.37122 13.6521 3.63164 13.3592C3.89205 13.0664 4.25089 12.8793 4.6401 12.8334L4.82729 12.8222H9.2385H9.2401ZM22.7313 12.8222H27.1857C27.5778 12.8223 27.9563 12.9664 28.2492 13.2272C28.5421 13.4879 28.729 13.8471 28.7745 14.2366L28.7857 14.4222V20.4062C28.7857 21.1629 28.5979 21.9077 28.239 22.5738C27.8802 23.24 27.3615 23.8066 26.7296 24.2228C26.0977 24.639 25.3723 24.8917 24.6186 24.9584C23.8649 25.025 23.1064 24.9035 22.4113 24.6046C22.6481 24.1278 22.8337 23.6238 22.9601 23.0958C23.3947 23.2986 23.872 23.3931 24.3511 23.3712C24.8302 23.3494 25.2969 23.2118 25.7112 22.9703C26.1255 22.7287 26.4752 22.3904 26.7303 21.9843C26.9854 21.5782 27.1384 21.1163 27.1761 20.6382L27.1857 20.4062V14.4222H23.1601L23.1505 14.1838C23.1156 13.7041 22.9722 13.2385 22.7313 12.8222ZM15.9825 4.78223C16.9277 4.78223 17.8342 5.15772 18.5026 5.8261C19.171 6.49448 19.5465 7.40099 19.5465 8.34623C19.5465 9.29146 19.171 10.198 18.5026 10.8664C17.8342 11.5347 16.9277 11.9102 15.9825 11.9102C15.0373 11.9102 14.1307 11.5347 13.4624 10.8664C12.794 10.198 12.4185 9.29146 12.4185 8.34623C12.4185 7.40099 12.794 6.49448 13.4624 5.8261C14.1307 5.15772 15.0373 4.78223 15.9825 4.78223ZM23.9617 5.78703C24.7737 5.78703 25.5524 6.10959 26.1266 6.68375C26.7007 7.25791 27.0233 8.03664 27.0233 8.84863C27.0233 9.66061 26.7007 10.4393 26.1266 11.0135C25.5524 11.5877 24.7737 11.9102 23.9617 11.9102C23.1497 11.9102 22.371 11.5877 21.7968 11.0135C21.2227 10.4393 20.9001 9.66061 20.9001 8.84863C20.9001 8.03664 21.2227 7.25791 21.7968 6.68375C22.371 6.10959 23.1497 5.78703 23.9617 5.78703ZM8.0273 5.78703C8.83928 5.78703 9.61801 6.10959 10.1922 6.68375C10.7663 7.25791 11.0889 8.03664 11.0889 8.84863C11.0889 9.66061 10.7663 10.4393 10.1922 11.0135C9.61801 11.5877 8.83928 11.9102 8.0273 11.9102C7.21531 11.9102 6.43658 11.5877 5.86242 11.0135C5.28826 10.4393 4.96569 9.66061 4.96569 8.84863C4.96569 8.03664 5.28826 7.25791 5.86242 6.68375C6.43658 6.10959 7.21531 5.78703 8.0273 5.78703ZM15.9825 6.38223C15.4616 6.38223 14.9621 6.58915 14.5937 6.95747C14.2254 7.32579 14.0185 7.82534 14.0185 8.34623C14.0185 8.86711 14.2254 9.36666 14.5937 9.73498C14.9621 10.1033 15.4616 10.3102 15.9825 10.3102C16.5034 10.3102 17.0029 10.1033 17.3713 9.73498C17.7396 9.36666 17.9465 8.86711 17.9465 8.34623C17.9465 7.82534 17.7396 7.32579 17.3713 6.95747C17.0029 6.58915 16.5034 6.38223 15.9825 6.38223ZM23.9617 7.38703C23.5741 7.38703 23.2023 7.54102 22.9282 7.81512C22.6541 8.08922 22.5001 8.46099 22.5001 8.84863C22.5001 9.23627 22.6541 9.60803 22.9282 9.88213C23.2023 10.1562 23.5741 10.3102 23.9617 10.3102C24.3493 10.3102 24.7211 10.1562 24.9952 9.88213C25.2693 9.60803 25.4233 9.23627 25.4233 8.84863C25.4233 8.46099 25.2693 8.08922 24.9952 7.81512C24.7211 7.54102 24.3493 7.38703 23.9617 7.38703ZM8.0273 7.38703C7.63966 7.38703 7.26789 7.54102 6.99379 7.81512C6.71968 8.08922 6.56569 8.46099 6.56569 8.84863C6.56569 9.23627 6.71968 9.60803 6.99379 9.88213C7.26789 10.1562 7.63966 10.3102 8.0273 10.3102C8.41494 10.3102 8.7867 10.1562 9.0608 9.88213C9.33491 9.60803 9.48889 9.23627 9.48889 8.84863C9.48889 8.46099 9.33491 8.08922 9.0608 7.81512C8.7867 7.54102 8.41494 7.38703 8.0273 7.38703Z" fill="#265CBC"/>
</svg>
