<svg xmlns="http://www.w3.org/2000/svg" width="32" height="32" fill="none" viewBox="0 0 32 32"><path fill="#D2D2D2" fill-rule="evenodd" d="M16.4921 29.4258C15.4687 28.8228 14.4648 28.1872 13.4821 27.5198C12.4801 26.8398 11.5161 26.1058 10.5941 25.3198C9.67809 24.5298 8.81809 23.6798 8.01809 22.7718C7.21809 21.8618 6.51209 20.8718 5.91809 19.8158C5.32047 18.748 4.85058 17.6135 4.51809 16.4358C4.16967 15.1871 3.99536 13.8962 4.00009 12.5998V6.19983L5.00009 5.19983C5.66609 5.19983 6.31209 5.17783 6.94009 5.12783C7.53209 5.08183 8.12209 4.99583 8.70409 4.87183C9.27209 4.74783 9.82809 4.57583 10.3681 4.35983C10.9361 4.12383 11.4821 3.83783 12.0001 3.50583C12.7344 3.02322 13.531 2.64305 14.3681 2.37583C15.6666 2.00063 17.0296 1.90386 18.3681 2.09183C19.2288 2.21172 20.0643 2.47041 20.8421 2.85783C21.2401 3.05183 21.6261 3.26583 22.0021 3.50183C22.5221 3.83583 23.0721 4.12183 23.6441 4.35783C24.1841 4.57583 24.7381 4.74583 25.3061 4.86983C25.8881 4.99383 26.4801 5.08183 27.0741 5.12783C27.6961 5.17583 28.3421 5.19783 29.0081 5.19783L30.0081 6.19783V12.5978C30.0149 13.8946 29.8426 15.1862 29.4961 16.4358C29.1635 17.6135 28.6936 18.7479 28.0961 19.8158C27.5003 20.8712 26.7966 21.8619 25.9961 22.7718C25.1961 23.6758 24.3381 24.5258 23.4241 25.3118C22.5014 26.0997 21.5345 26.8342 20.5281 27.5118C19.5415 28.1803 18.5344 28.818 17.5081 29.4238H16.4921V29.4258ZM6.00009 7.17983V12.5998C5.99209 13.7098 6.14009 14.8198 6.44009 15.8898C6.72806 16.9169 7.13762 17.9059 7.66009 18.8358C8.18609 19.7698 8.81009 20.6458 9.52009 21.4518C10.2601 22.2858 11.0521 23.0718 11.8961 23.7998C12.7601 24.5358 13.6621 25.2238 14.6001 25.8598C15.4001 26.3938 16.2001 26.9058 17.0001 27.3978C17.8001 26.9138 18.6001 26.4018 19.4001 25.8618C20.3401 25.2238 21.2461 24.5358 22.1101 23.7998C22.9521 23.0718 23.7441 22.2878 24.4821 21.4558C25.1904 20.6501 25.8137 19.7735 26.3421 18.8398C26.8641 17.9098 27.2741 16.9198 27.5621 15.8938C27.8621 14.8198 28.0081 13.7138 28.0021 12.5998V7.17983C27.6841 7.17983 27.3761 7.15583 27.0721 7.13383L26.9141 7.12183C26.2298 7.06788 25.5497 6.96967 24.8781 6.82783C23.4754 6.52147 22.1376 5.97038 20.9261 5.19983C20.6146 5.00276 20.2928 4.8225 19.9621 4.65983C19.3681 4.36779 18.7315 4.17201 18.0761 4.07983C17.0342 3.92714 15.9717 3.99943 14.9601 4.29183C14.2961 4.50783 13.6621 4.81183 13.0801 5.19583C12.4561 5.59583 11.8001 5.93983 11.1141 6.22183C10.4653 6.48073 9.7964 6.68608 9.11409 6.83583C8.44409 6.97583 7.76409 7.07583 7.08009 7.12783C6.73209 7.14783 6.37009 7.16783 6.00009 7.17983V7.17983ZM18.1301 15.7798C18.7746 15.5178 19.308 15.0398 19.6389 14.4279C19.9699 13.8159 20.0779 13.1079 19.9443 12.4251C19.8108 11.7423 19.4441 11.1271 18.907 10.6848C18.3699 10.2426 17.6958 10.0008 17.0001 10.0008C16.3044 10.0008 15.6302 10.2426 15.0931 10.6848C14.556 11.1271 14.1894 11.7423 14.0559 12.4251C13.9223 13.1079 14.0303 13.8159 14.3613 14.4279C14.6922 15.0398 15.2256 15.5178 15.8701 15.7798L15.0001 20.9998H19.0001L18.1301 15.7798V15.7798Z" clip-rule="evenodd"/></svg>