<svg width="33" height="33" viewBox="0 0 33 33" fill="none" xmlns="http://www.w3.org/2000/svg">
<path d="M17.0858 0.99691C18.7796 0.970703 20.4637 0.986233 22.1458 0.970703C22.2477 2.95178 22.9601 4.96974 24.4103 6.37037C25.8575 7.80595 27.9046 8.46307 29.8963 8.68535V13.8967C28.0298 13.8356 26.1545 13.4473 24.4608 12.6436C23.7231 12.3097 23.0359 11.8797 22.3632 11.44C22.3545 15.2216 22.3787 18.9984 22.3389 22.7645C22.238 24.5738 21.641 26.3743 20.5889 27.8652C18.8961 30.3471 15.958 31.9652 12.9402 32.0157C11.0892 32.1215 9.24015 31.6167 7.66286 30.6868C5.04893 29.1455 3.20957 26.3238 2.94167 23.2954C2.90793 22.6541 2.90274 22.0115 2.92614 21.3697C3.15909 18.9072 4.37725 16.5514 6.26805 14.9489C8.41123 13.0823 11.4134 12.1932 14.2244 12.7193C14.2506 14.6363 14.1739 16.5514 14.1739 18.4684C12.8898 18.053 11.3891 18.1695 10.2671 18.9489C9.44616 19.4897 8.82579 20.2854 8.5015 21.2134C8.2336 21.8696 8.31028 22.5985 8.32581 23.2954C8.6335 25.4192 10.6757 27.2042 12.8558 27.011C14.3011 26.9955 15.6862 26.1569 16.4394 24.929C16.683 24.499 16.9558 24.0593 16.9703 23.5536C17.0975 21.2386 17.047 18.9334 17.0625 16.6184C17.0732 11.4012 17.047 6.19857 17.0868 0.997881L17.0858 0.99691Z" fill="#D2D2D2"/>
</svg>
