<svg width="120" height="120" viewBox="0 0 120 120" fill="none" xmlns="http://www.w3.org/2000/svg">
<g clip-path="url(#clip0)">
<path d="M119.77 45.4305C119.335 44.2455 118.33 43.3555 117.1 43.0655L82.3198 34.9955L63.2498 1.88047C61.8998 -0.444531 58.0948 -0.444531 56.7448 1.88047L37.6798 34.9955L2.89982 43.0655C1.66982 43.3555 0.664821 44.2455 0.229821 45.4305C-0.205179 46.6205 -0.0101786 47.9505 0.744821 48.9655L24.0998 80.1805L16.5648 115.47C16.2648 116.865 16.7898 118.315 17.9148 119.2C19.0448 120.085 20.5698 120.255 21.8598 119.625L59.9998 101.195L98.1348 119.625C98.6498 119.88 99.2098 120 99.7648 120C100.59 120 101.405 119.725 102.08 119.2C103.21 118.315 103.73 116.865 103.435 115.47L95.8998 80.1805L119.255 48.9655C120.01 47.9505 120.205 46.6205 119.77 45.4305Z" fill="#1D84BE"/>
<path d="M59.9998 0.134766C58.7098 0.134766 57.4198 0.714766 56.7498 1.87977L37.6798 34.9948L2.89982 43.0648C1.66982 43.3548 0.664821 44.2448 0.229821 45.4298C-0.205179 46.6198 -0.0101786 47.9498 0.744821 48.9648L24.0998 80.1798L16.5648 115.47C16.2648 116.865 16.7898 118.315 17.9148 119.2C18.5648 119.71 19.3498 119.98 20.1448 120H20.3148C20.8398 119.99 21.3648 119.865 21.8598 119.625L59.9998 101.195V0.134766Z" fill="#157AB4"/>
<path d="M45.0003 79.9996C43.4503 79.9996 42.0653 79.0546 41.5053 77.6046L32.7553 55.1046C32.0053 53.1746 32.9603 51.0046 34.8953 50.2496C36.8153 49.5146 39.0003 50.4546 39.7503 52.3896L45.0003 65.9046L50.2553 52.3946C51.0053 50.4596 53.2053 49.5196 55.1103 50.2546C57.0453 51.0046 58.0002 53.1796 57.2502 55.1096L48.5003 77.6096C47.9353 79.0546 46.5503 79.9996 45.0003 79.9996Z" fill="#FAFAFA"/>
<path d="M63.75 80C61.68 80 60 78.32 60 76.25V53.75C60 51.68 61.68 50 63.75 50C65.82 50 67.5 51.68 67.5 53.75V76.25C67.5 78.32 65.82 80 63.75 80Z" fill="#FAFAFA"/>
<path d="M75 80C72.93 80 71.25 78.32 71.25 76.25V53.75C71.25 51.68 72.93 50 75 50C77.07 50 78.75 51.68 78.75 53.75V76.25C78.75 78.32 77.07 80 75 80Z" fill="#FAFAFA"/>
<path d="M81.25 70H75C72.93 70 71.25 68.32 71.25 66.25V53.75C71.25 51.68 72.93 50 75 50H81.25C86.765 50 91.25 54.485 91.25 60C91.25 65.515 86.765 70 81.25 70ZM78.75 62.5H81.25C82.625 62.5 83.75 61.375 83.75 60C83.75 58.625 82.625 57.5 81.25 57.5H78.75V62.5Z" fill="#FAFAFA"/>
<path d="M53.2998 65.25H45.2498L44.9998 65.905L44.7448 65.25H36.6998L41.5048 77.61C42.0648 79.055 43.4498 80 44.9998 80C46.5498 80 47.9348 79.055 48.4948 77.605L53.2998 65.25Z" fill="#DADADA"/>
<path d="M67.5 65.25H60V76.25C60 78.32 61.68 80 63.75 80C65.82 80 67.5 78.32 67.5 76.25V65.25Z" fill="#DADADA"/>
<path d="M71.25 65.25V76.25C71.25 78.32 72.93 80 75 80C77.07 80 78.75 78.32 78.75 76.25V70H75C72.93 70 71.25 68.32 71.25 66.25V65.25Z" fill="#DADADA"/>
<path d="M89.76 65.25H71.25V66.25C71.25 68.32 72.93 70 75 70H78.75H81.25C84.84 70 87.995 68.1 89.76 65.25Z" fill="#DADADA"/>
</g>
<defs>
<clipPath id="clip0">
<rect width="120" height="120" fill="white"/>
</clipPath>
</defs>
</svg>
