<svg width="158" height="158" viewBox="0 0 158 158" fill="none" xmlns="http://www.w3.org/2000/svg">
<g filter="url(#filter0_d)">
<path d="M149.605 61.8085H126.478L141.228 53.2927C143.337 52.0749 144.053 49.3711 142.824 47.2684L116.457 2.1849C115.241 0.106874 112.58 -0.606505 110.488 0.585L34.3724 43.9444C32.2557 45.1502 31.5238 47.8505 32.742 49.9602L39.5825 61.8085H8.39453C5.96758 61.8085 4 63.776 4 66.203V145.598C4 148.025 5.96758 149.992 8.39453 149.992H149.605C152.032 149.992 154 148.025 154 145.598V66.203C154 63.776 152.032 61.8085 149.605 61.8085ZM111.063 10.3725L133.006 47.891L78.4533 79.3866H59.8797L42.5635 49.3936L111.063 10.3725ZM145.211 141.203H12.7891V105.754H145.211V141.203ZM145.211 96.9647H12.7891V70.5975H44.657L49.7312 79.3866H35.0547C32.6277 79.3866 30.6602 81.3542 30.6602 83.7811C30.6602 86.2081 32.6277 88.1757 35.0547 88.1757C35.6664 88.1757 121.011 88.1757 122.945 88.1757C125.372 88.1757 127.34 86.2081 127.34 83.7811C127.34 81.3542 125.372 79.3866 122.945 79.3866H96.0317L111.255 70.5975H145.211V96.9647Z" fill="#2E83D1"/>
<path d="M97.9682 26.8777C95.6652 26.1098 93.177 27.3547 92.4094 29.6571L85.8689 49.2787L82.1077 45.5176C80.3918 43.8014 77.6092 43.8014 75.893 45.5176C74.1768 47.2338 74.1768 50.0161 75.893 51.7323L84.6821 60.5214C86.993 62.8323 90.9273 61.8972 91.9585 58.8037L100.748 32.4365C101.515 30.1341 100.271 27.6453 97.9682 26.8777Z" fill="#2E83D1"/>
<path d="M51.784 130.976H49.36L43.84 115.016H46.12L50.584 127.856L55.048 115.016H57.304L51.784 130.976ZM65.8973 131.12C64.8093 131.12 63.7773 130.92 62.8013 130.52C61.8413 130.104 60.9933 129.52 60.2573 128.768C59.5213 128.032 58.9453 127.176 58.5293 126.2C58.1133 125.208 57.9053 124.168 57.9053 123.08C57.9053 121.992 58.1053 120.968 58.5053 120.008C58.9213 119.032 59.5053 118.168 60.2573 117.416C60.9933 116.68 61.8413 116.104 62.8013 115.688C63.7773 115.272 64.8093 115.064 65.8973 115.064C66.9853 115.064 68.0173 115.272 68.9933 115.688C69.9693 116.104 70.8253 116.68 71.5613 117.416C72.2973 118.152 72.8733 119.008 73.2893 119.984C73.7053 120.96 73.9133 121.992 73.9133 123.08C73.9133 124.168 73.7053 125.208 73.2893 126.2C72.8733 127.176 72.2973 128.032 71.5613 128.768C70.8253 129.504 69.9693 130.08 68.9933 130.496C68.0173 130.912 66.9853 131.12 65.8973 131.12ZM65.8973 117.248C65.1133 117.248 64.3613 117.4 63.6413 117.704C62.9373 117.992 62.3133 118.408 61.7693 118.952C61.2253 119.496 60.8013 120.128 60.4973 120.848C60.2093 121.552 60.0653 122.296 60.0653 123.08C60.0653 123.88 60.2173 124.648 60.5213 125.384C60.8253 126.104 61.2413 126.728 61.7693 127.256C62.3133 127.8 62.9373 128.224 63.6413 128.528C64.3613 128.816 65.1133 128.96 65.8973 128.96C66.6813 128.96 67.4253 128.816 68.1293 128.528C68.8493 128.224 69.4813 127.8 70.0253 127.256C70.5533 126.728 70.9693 126.104 71.2733 125.384C71.5773 124.648 71.7293 123.88 71.7293 123.08C71.7293 122.296 71.5773 121.552 71.2733 120.848C70.9853 120.128 70.5693 119.496 70.0253 118.952C69.4813 118.408 68.8493 117.992 68.1293 117.704C67.4253 117.4 66.6813 117.248 65.8973 117.248ZM80.3813 117.08V131H78.2693V117.08H74.4053V115.04H84.2453V117.08H80.3813ZM92.9676 131.12C91.8796 131.12 90.8476 130.92 89.8716 130.52C88.9116 130.104 88.0636 129.52 87.3276 128.768C86.5916 128.032 86.0156 127.176 85.5996 126.2C85.1836 125.208 84.9756 124.168 84.9756 123.08C84.9756 121.992 85.1756 120.968 85.5756 120.008C85.9916 119.032 86.5756 118.168 87.3276 117.416C88.0636 116.68 88.9116 116.104 89.8716 115.688C90.8476 115.272 91.8796 115.064 92.9676 115.064C94.0556 115.064 95.0876 115.272 96.0636 115.688C97.0396 116.104 97.8956 116.68 98.6316 117.416C99.3676 118.152 99.9436 119.008 100.36 119.984C100.776 120.96 100.984 121.992 100.984 123.08C100.984 124.168 100.776 125.208 100.36 126.2C99.9436 127.176 99.3676 128.032 98.6316 128.768C97.8956 129.504 97.0396 130.08 96.0636 130.496C95.0876 130.912 94.0556 131.12 92.9676 131.12ZM92.9676 117.248C92.1836 117.248 91.4316 117.4 90.7116 117.704C90.0076 117.992 89.3836 118.408 88.8396 118.952C88.2956 119.496 87.8716 120.128 87.5676 120.848C87.2796 121.552 87.1356 122.296 87.1356 123.08C87.1356 123.88 87.2876 124.648 87.5916 125.384C87.8956 126.104 88.3116 126.728 88.8396 127.256C89.3836 127.8 90.0076 128.224 90.7116 128.528C91.4316 128.816 92.1836 128.96 92.9676 128.96C93.7516 128.96 94.4956 128.816 95.1996 128.528C95.9196 128.224 96.5516 127.8 97.0956 127.256C97.6236 126.728 98.0396 126.104 98.3436 125.384C98.6476 124.648 98.7996 123.88 98.7996 123.08C98.7996 122.296 98.6476 121.552 98.3436 120.848C98.0556 120.128 97.6396 119.496 97.0956 118.952C96.5516 118.408 95.9196 117.992 95.1996 117.704C94.4956 117.4 93.7516 117.248 92.9676 117.248ZM111.197 119.96C111.117 119.336 110.949 118.824 110.693 118.424C110.405 117.992 110.045 117.68 109.613 117.488C109.197 117.28 108.661 117.176 108.005 117.176C106.917 117.176 106.157 117.408 105.725 117.872C105.309 118.288 105.101 118.888 105.101 119.672C105.101 120.12 105.165 120.488 105.293 120.776C105.421 121.048 105.613 121.272 105.869 121.448C106.253 121.72 106.885 121.896 107.765 121.976C108.661 122.056 109.413 122.184 110.021 122.36C110.645 122.52 111.189 122.744 111.653 123.032C112.821 123.768 113.405 124.92 113.405 126.488C113.405 127.096 113.285 127.672 113.045 128.216C112.805 128.76 112.469 129.248 112.037 129.68C111.525 130.176 110.917 130.544 110.213 130.784C109.525 131.024 108.805 131.144 108.053 131.144C106.357 131.144 105.005 130.664 103.997 129.704C103.133 128.84 102.613 127.688 102.437 126.248L102.485 126.224H104.597C104.725 127.072 105.013 127.704 105.461 128.12C106.085 128.696 106.925 128.984 107.981 128.984C108.989 128.984 109.789 128.752 110.381 128.288C110.973 127.824 111.269 127.224 111.269 126.488C111.269 126.152 111.221 125.864 111.125 125.624C111.045 125.368 110.885 125.144 110.645 124.952C110.101 124.536 109.085 124.272 107.597 124.16C106.077 124.032 104.925 123.592 104.141 122.84C103.357 122.088 102.965 121.032 102.965 119.672C102.965 118.296 103.389 117.184 104.237 116.336C105.133 115.44 106.381 114.992 107.981 114.992C109.645 114.992 110.941 115.496 111.869 116.504C112.685 117.384 113.181 118.536 113.357 119.96H111.197Z" fill="#20A1FF"/>
</g>
<defs>
<filter id="filter0_d" x="0" y="0" width="158" height="158" filterUnits="userSpaceOnUse" color-interpolation-filters="sRGB">
<feFlood flood-opacity="0" result="BackgroundImageFix"/>
<feColorMatrix in="SourceAlpha" type="matrix" values="0 0 0 0 0 0 0 0 0 0 0 0 0 0 0 0 0 0 127 0"/>
<feOffset dy="4"/>
<feGaussianBlur stdDeviation="2"/>
<feColorMatrix type="matrix" values="0 0 0 0 0 0 0 0 0 0 0 0 0 0 0 0 0 0 0.25 0"/>
<feBlend mode="normal" in2="BackgroundImageFix" result="effect1_dropShadow"/>
<feBlend mode="normal" in="SourceGraphic" in2="effect1_dropShadow" result="shape"/>
</filter>
</defs>
</svg>
