<svg width="32" height="32" viewBox="0 0 32 32" fill="none" xmlns="http://www.w3.org/2000/svg">
<path d="M19.3712 14.6H21.4C21.6122 14.6 21.8157 14.6842 21.9657 14.8343C22.1157 14.9843 22.2 15.1878 22.2 15.4C22.2 15.6121 22.1157 15.8156 21.9657 15.9656C21.8157 16.1157 21.6122 16.2 21.4 16.2H10.2C9.98785 16.2 9.78437 16.1157 9.63434 15.9656C9.48431 15.8156 9.40002 15.6121 9.40002 15.4C9.40002 15.1878 9.48431 14.9843 9.63434 14.8343C9.78437 14.6842 9.98785 14.6 10.2 14.6H11.4112C11.1848 14.3488 11.0438 14.0323 11.0084 13.696C10.9731 13.3596 11.0452 13.0207 11.2144 12.728L15.2144 5.79996C15.4266 5.43248 15.7761 5.16434 16.1859 5.05452C16.5958 4.9447 17.0325 5.00219 17.4 5.21436L21.5568 7.61436C21.9243 7.82654 22.1924 8.176 22.3023 8.58588C22.4121 8.99575 22.3546 9.43247 22.1424 9.79996L19.3712 14.6ZM20.7568 8.99996L16.6 6.59996L12.6 13.528L14.456 14.6H17.5248L20.7568 8.99996Z" fill="#265CBC"/>
<path d="M22.136 13L23.0592 11.4C23.2975 11.409 23.5308 11.4711 23.7421 11.5818C23.9533 11.6926 24.1371 11.8491 24.28 12.04L28.28 17.3728C28.4877 17.6498 28.6 17.9866 28.6 18.3328V25.8C28.6 26.2244 28.4314 26.6313 28.1314 26.9314C27.8313 27.2315 27.4243 27.4 27 27.4H4.6C4.17565 27.4 3.76869 27.2315 3.46863 26.9314C3.16857 26.6313 3 26.2244 3 25.8V18.3328C3 17.9866 3.11228 17.6498 3.32 17.3728L7.32 12.04C7.46903 11.8413 7.66229 11.68 7.88446 11.5689C8.10663 11.4579 8.35161 11.4 8.6 11.4H10.1408L9.3744 12.728C9.32444 12.8146 9.28266 12.9057 9.2496 13H8.6L5 17.8H26.6L23 13H22.136ZM4.6 25.8H27V19.4H4.6V25.8Z" fill="#265CBC"/>
</svg>
